<svg width="24" height="16" viewBox="-3.5 0 24 16" fill="none" xmlns="http://www.w3.org/2000/svg">
<path fill-rule="evenodd" clip-rule="evenodd" d="M14.6415 2.67095H3.73683L2.80511 1.00089C2.70053 0.81344 2.50269 0.697266 2.28803 0.697266H1.10382C0.776813 0.697266 0.511719 0.96236 0.511719 1.28937C0.511719 1.61638 0.776813 1.88148 1.10382 1.88148H1.94035L2.85985 3.52962L4.98043 8.22164L4.9826 8.22643L5.16938 8.6397L3.0403 10.9107C2.88721 11.074 2.83929 11.3097 2.91644 11.5198C2.9936 11.7299 3.18264 11.8786 3.40503 11.904L5.34566 12.1258C7.77304 12.4032 10.2241 12.4032 12.6515 12.1258L14.5921 11.904C14.917 11.8668 15.1503 11.5734 15.1132 11.2485C15.076 10.9236 14.7826 10.6903 14.4577 10.7274L12.517 10.9492C10.179 11.2164 7.81815 11.2164 5.48012 10.9492L4.70998 10.8612L6.27264 9.19434C6.28776 9.17822 6.3018 9.16147 6.31476 9.14419L6.90909 9.22152C7.74192 9.32989 8.58379 9.35114 9.42103 9.28492C11.3738 9.13047 13.1836 8.20128 14.4471 6.70443L14.9035 6.16378C14.9188 6.14562 14.933 6.12656 14.946 6.10669L15.7966 4.81049C16.3995 3.89173 15.7404 2.67095 14.6415 2.67095Z" fill="white"/>
<path d="M4.65646 13.1315C4.00244 13.1315 3.47225 13.6617 3.47225 14.3157C3.47225 14.9697 4.00244 15.4999 4.65646 15.4999C5.31048 15.4999 5.84067 14.9697 5.84067 14.3157C5.84067 13.6617 5.31048 13.1315 4.65646 13.1315Z" fill="white"/>
<path d="M12.1565 14.3157C12.1565 13.6617 12.6866 13.1315 13.3407 13.1315C13.9947 13.1315 14.5249 13.6617 14.5249 14.3157C14.5249 14.9697 13.9947 15.4999 13.3407 15.4999C12.6866 15.4999 12.1565 14.9697 12.1565 14.3157Z" fill="white"/>
</svg>
