<svg width="24" height="24" viewBox="-1 -1 24 24" fill="none" xmlns="http://www.w3.org/2000/svg">
<g id="vuesax/bold/tick-circle">
<g id="vuesax/bold/tick-circle_2">
<g id="tick-circle">
<path id="Vector" d="M11 2C6.041 2 2 6.041 2 11C2 15.959 6.041 20 11 20C15.959 20 20 15.959 20 11C20 6.041 15.959 2 11 2ZM15.302 8.93L10.199 14.033C10.073 14.159 9.902 14.231 9.722 14.231C9.542 14.231 9.371 14.159 9.245 14.033L6.698 11.486C6.437 11.225 6.437 10.793 6.698 10.532C6.959 10.271 7.391 10.271 7.652 10.532L9.722 12.602L14.348 7.976C14.609 7.715 15.041 7.715 15.302 7.976C15.563 8.237 15.563 8.66 15.302 8.93Z" fill="#1E1F25"/>
</g>
</g>
</g>
</svg>
