<svg width="24" height="24" viewBox="0 0 24 24" fill="none" xmlns="http://www.w3.org/2000/svg">
<g id="&#208;&#161;&#209;&#128;&#208;&#176;&#208;&#178;&#208;&#189;&#208;&#181;&#208;&#189;&#208;&#184;&#208;&#181;">
<g id="Icon">
<path fill-rule="evenodd" clip-rule="evenodd" d="M20.2903 4.70865C20.7645 9.55792 20.7645 14.4419 20.2903 19.2912C20.238 19.8257 19.8717 20.275 19.3659 20.4392C17.6728 20.9888 15.8266 20.9888 14.1335 20.4392C13.6278 20.275 13.2615 19.8257 13.2092 19.2912C12.735 14.4419 12.735 9.55792 13.2092 4.70865C13.2615 4.1741 13.6278 3.72483 14.1335 3.56065C15.8266 3.01103 17.6728 3.01103 19.3659 3.56065C19.8717 3.72483 20.238 4.1741 20.2903 4.70865Z" fill="#6B48F5"/>
<path fill-rule="evenodd" clip-rule="evenodd" d="M10.7903 8.70865C11.2645 13.5579 11.2645 14.4419 10.7903 19.2912C10.738 19.8257 10.3717 20.275 9.86592 20.4392C8.17283 20.9888 6.32662 20.9888 4.63353 20.4392C4.12775 20.275 3.76146 19.8257 3.70919 19.2912C3.23496 14.4419 3.23496 13.5579 3.70919 8.70865C3.76146 8.1741 4.12776 7.72483 4.63353 7.56065C6.32662 7.01103 8.17283 7.01103 9.86592 7.56065C10.3717 7.72483 10.738 8.1741 10.7903 8.70865Z" fill="#6B48F5"/>
</g>
</g>
</svg>
