<svg width="24" height="21" viewBox="-2 0 24 21" fill="none" xmlns="http://www.w3.org/2000/svg">
<g id="vuesax/linear/copy">
<g id="copy">
<path id="Vector" d="M13.3327 11.2513V14.7513C13.3327 17.668 12.166 18.8346 9.24935 18.8346H5.74935C2.83268 18.8346 1.66602 17.668 1.66602 14.7513V11.2513C1.66602 8.33464 2.83268 7.16797 5.74935 7.16797H9.24935C12.166 7.16797 13.3327 8.33464 13.3327 11.2513Z" stroke="#5B6375" stroke-width="1.5" stroke-linecap="round" stroke-linejoin="round"/>
<path id="Vector_2" d="M18.3327 6.2513V9.7513C18.3327 12.668 17.166 13.8346 14.2493 13.8346H13.3327V11.2513C13.3327 8.33464 12.166 7.16797 9.24935 7.16797H6.66602V6.2513C6.66602 3.33464 7.83268 2.16797 10.7493 2.16797H14.2493C17.166 2.16797 18.3327 3.33464 18.3327 6.2513Z" stroke="#5B6375" stroke-width="1.5" stroke-linecap="round" stroke-linejoin="round"/>
</g>
</g>
</svg>
