<svg width="24" height="24" viewBox="0 0 24 24" fill="none" xmlns="http://www.w3.org/2000/svg">
<path d="M10.4842 17.2452H4.01172" stroke="#5B6375" stroke-width="1.5" stroke-linecap="round" stroke-linejoin="round"/>
<path fill-rule="evenodd" clip-rule="evenodd" d="M14.5469 17.2462C14.5469 19.288 15.2278 19.968 17.2687 19.968C19.3096 19.968 19.9905 19.288 19.9905 17.2462C19.9905 15.2044 19.3096 14.5244 17.2687 14.5244C15.2278 14.5244 14.5469 15.2044 14.5469 17.2462Z" stroke="#5B6375" stroke-width="1.5" stroke-linecap="round" stroke-linejoin="round"/>
<path d="M13.5176 6.75596H19.9892" stroke="#5B6375" stroke-width="1.5" stroke-linecap="round" stroke-linejoin="round"/>
<path fill-rule="evenodd" clip-rule="evenodd" d="M9.45619 6.75499C9.45619 4.7141 8.7753 4.0332 6.7344 4.0332C4.69261 4.0332 4.01172 4.7141 4.01172 6.75499C4.01172 8.79678 4.69261 9.47678 6.7344 9.47678C8.7753 9.47678 9.45619 8.79678 9.45619 6.75499Z" stroke="#5B6375" stroke-width="1.5" stroke-linecap="round" stroke-linejoin="round"/>
</svg>
