<svg width="25" height="24" viewBox="0 0 25 24" fill="none" xmlns="http://www.w3.org/2000/svg">
<path fill-rule="evenodd" clip-rule="evenodd" d="M3.75 10.3178C3.75 5.71789 7.59388 2 12.2434 2C16.9061 2 20.75 5.71789 20.75 10.3178C20.75 12.6357 19.907 14.7876 18.5195 16.6116C16.9888 18.6235 15.1022 20.3765 12.9785 21.7524C12.4925 22.0704 12.0539 22.0944 11.5204 21.7524C9.38474 20.3765 7.49809 18.6235 5.9805 16.6116C4.59198 14.7876 3.75 12.6357 3.75 10.3178ZM9.44423 10.5768C9.44423 12.1177 10.7017 13.3297 12.2434 13.3297C13.7862 13.3297 15.0558 12.1177 15.0558 10.5768C15.0558 9.0478 13.7862 7.77683 12.2434 7.77683C10.7017 7.77683 9.44423 9.0478 9.44423 10.5768Z" fill="#1E1F25"/>
</svg>
