<svg width="24" height="24" viewBox="0 0 24 24" fill="none" xmlns="http://www.w3.org/2000/svg">
<g id="Outline/Interface/Menu">
<g id="Icon">
<path fill-rule="evenodd" clip-rule="evenodd" d="M21 12C21 11.4957 20.6101 11.087 20.129 11.087H3.87097C3.38994 11.087 3 11.4957 3 12C3 12.5043 3.38994 12.913 3.87097 12.913H20.129C20.6101 12.913 21 12.5043 21 12Z" fill="#6B48F5"/>
<path fill-rule="evenodd" clip-rule="evenodd" d="M21 5.91304C21 5.40878 20.6101 5 20.129 5H3.87097C3.38994 5 3 5.40878 3 5.91304C3 6.4173 3.38994 6.82609 3.87097 6.82609H20.129C20.6101 6.82609 21 6.4173 21 5.91304Z" fill="#6B48F5"/>
<path fill-rule="evenodd" clip-rule="evenodd" d="M21 18.087C21 17.5827 20.6101 17.1739 20.129 17.1739H3.87097C3.38994 17.1739 3 17.5827 3 18.087C3 18.5912 3.38994 19 3.87097 19H20.129C20.6101 19 21 18.5912 21 18.087Z" fill="#6B48F5"/>
</g>
</g>
</svg>
