<svg width="77" height="76" viewBox="0 0 77 76" fill="none" xmlns="http://www.w3.org/2000/svg">
<path d="M38.5006 69.6673C21.0116 69.6673 6.83398 55.4897 6.83398 38.0006C6.83398 20.5116 21.0116 6.33398 38.5006 6.33398C55.9897 6.33398 70.1673 20.5116 70.1673 38.0006C70.1481 55.4817 55.9817 69.6481 38.5006 69.6673ZM38.45 63.334H38.5006C52.4869 63.32 63.8156 51.9743 63.8087 37.988C63.8017 24.0017 52.4616 12.6673 38.4753 12.6673C24.489 12.6673 13.149 24.0017 13.142 37.988C13.135 51.9743 24.4637 63.32 38.45 63.334ZM32.1673 53.834L19.5007 41.1673L23.9657 36.7023L32.1673 44.8723L53.0356 24.004L57.5006 28.5007L32.1673 53.834Z" fill="#6B48F5"/>
</svg>
