<svg width="55" height="23" viewBox="0 0 55 23" fill="none" xmlns="http://www.w3.org/2000/svg">
<path d="M33.0199 3.79004V17.8445H30.5766V5.69093H26.2149V17.8445H23.7715V3.79004H33.0199Z" fill="white"/>
<path d="M37.1114 18.0467C36.0345 18.0467 35.2065 17.8377 34.6277 17.4198V15.4583C34.9373 15.674 35.2739 15.8425 35.6373 15.9638C36.0143 16.0852 36.4585 16.1458 36.9701 16.1458C37.7374 16.1458 38.3163 15.9234 38.7067 15.4785C39.0971 15.0201 39.3394 14.3932 39.4336 13.5978H35.8998V11.6969H39.4134C39.1846 10.1466 38.3903 9.37137 37.0307 9.37137C36.6133 9.37137 36.196 9.43878 35.7787 9.5736C35.3748 9.70841 35.0517 9.84997 34.8094 9.99826V7.95582C35.0652 7.821 35.4085 7.70641 35.8393 7.61204C36.27 7.51767 36.7883 7.47048 37.3941 7.47048C38.148 7.47048 38.8077 7.6053 39.3731 7.87493C39.9519 8.13108 40.4298 8.49508 40.8068 8.96693C41.1972 9.4253 41.4866 9.98478 41.6751 10.6454C41.877 11.2925 41.978 12.0003 41.978 12.7687C41.978 14.4809 41.5741 15.7886 40.7664 16.6918C39.9721 17.5951 38.7538 18.0467 37.1114 18.0467Z" fill="white"/>
<path d="M47.6892 6.33804C46.7199 6.33804 45.9862 6.09537 45.4881 5.61004C45.0035 5.12471 44.7612 4.51804 44.7612 3.79004H46.7805C46.7805 4.14056 46.8612 4.39671 47.0228 4.55848C47.1978 4.72026 47.4199 4.80115 47.6892 4.80115C47.9449 4.80115 48.1469 4.72026 48.295 4.55848C48.443 4.38323 48.5171 4.12708 48.5171 3.79004H50.5364C50.5364 4.14056 50.4758 4.47085 50.3547 4.78093C50.2335 5.091 50.0518 5.36063 49.8095 5.58982C49.5806 5.819 49.2844 6.001 48.921 6.13582C48.5709 6.27063 48.1603 6.33804 47.6892 6.33804ZM45.9122 7.67271V13.982L49.5873 7.67271H51.7278V17.8445H49.4056V11.5554L45.7304 17.8445H43.59V7.67271H45.9122Z" fill="white"/>
<rect x="0.0839844" y="1.66675" width="18.6667" height="18.6667" rx="9.33333" fill="#FC3F1D"/>
<path d="M10.7335 16.6094H12.6835V5.40942H9.8472C6.99483 5.40942 5.49612 6.8759 5.49612 9.03532C5.49612 10.7596 6.31799 11.7749 7.78447 12.8224L5.23828 16.6094H7.34936L10.1856 12.3712L9.2026 11.7104C8.01008 10.9047 7.42994 10.2762 7.42994 8.92252C7.42994 7.73 8.26792 6.92424 9.86332 6.92424H10.7335V16.6094Z" fill="white"/>
</svg>
