<svg width="24" height="24" viewBox="0 0 24 24" fill="none" xmlns="http://www.w3.org/2000/svg">
<path fill-rule="evenodd" clip-rule="evenodd" d="M5.84047 9.85641C7.62779 13.7483 10.8083 16.8425 14.762 18.5191L14.7745 18.5244L15.5383 18.8648C16.511 19.2982 17.6542 18.9904 18.2778 18.1273L19.5522 16.3636C19.63 16.2558 19.6099 16.106 19.5065 16.0226L17.2818 14.2278C17.1712 14.1385 17.0085 14.1593 16.9239 14.2735L16.0581 15.4419C15.8478 15.7256 15.468 15.8242 15.1463 15.6786C12.1899 14.3407 9.81416 11.965 8.47622 9.00857C8.33061 8.68681 8.42921 8.30705 8.71296 8.09677L9.88134 7.23091C9.9955 7.14631 10.0163 6.98368 9.92706 6.87308L8.13202 4.64804C8.04859 4.54462 7.89884 4.52454 7.79111 4.60231L6.01782 5.88247C5.14903 6.50966 4.84307 7.6625 5.28654 8.63795L5.83988 9.85511C5.84008 9.85555 5.84027 9.85598 5.84047 9.85641ZM14.1701 19.8974C9.8741 18.0738 6.41874 14.7108 4.4767 10.481L4.47553 10.4785L3.92102 9.25874C3.18192 7.63299 3.69185 5.71158 5.13983 4.66627L6.91313 3.38611C7.66725 2.8417 8.71548 2.98231 9.29947 3.7062L11.0945 5.93125C11.7191 6.70542 11.5736 7.84381 10.7744 8.43605L10.1049 8.93221C11.2359 11.1266 13.0282 12.919 15.2226 14.0499L15.7188 13.3804C16.311 12.5812 17.4494 12.4358 18.2236 13.0603L20.4483 14.8551C21.1724 15.4393 21.3129 16.4879 20.768 17.242L19.4936 19.0058C18.4543 20.4443 16.5489 20.9572 14.9279 20.235L14.1701 19.8974Z" fill="#1E1F25"/>
</svg>
