<svg width="44" height="45" viewBox="0 0 44 45" fill="none" xmlns="http://www.w3.org/2000/svg">
<path fill-rule="evenodd" clip-rule="evenodd" d="M22.396 37.3864C24.5588 36.3114 34.8327 30.6988 34.8327 21.0765C34.8327 13.9888 29.087 8.24316 21.9994 8.24316C14.9117 8.24316 9.16602 13.9888 9.16602 21.0765C9.16602 30.6988 19.4399 36.3114 21.6027 37.3864C21.8578 37.5132 22.1409 37.5132 22.396 37.3864ZM21.9993 26.5765C25.0369 26.5765 27.4994 24.1141 27.4994 21.0765C27.4994 18.0389 25.0369 15.5765 21.9993 15.5765C18.9618 15.5765 16.4993 18.0389 16.4993 21.0765C16.4993 24.1141 18.9618 26.5765 21.9993 26.5765Z" fill="#5144DB"/>
</svg>
