<svg width="50" height="50" viewBox="0 0 50 50" fill="none" xmlns="http://www.w3.org/2000/svg">
<g id="vuesax/bold/profile-2user">
<g id="vuesax/bold/profile-2user_2">
<g id="profile-2user">
<path id="Vector" d="M22 15C19.38 15 17.25 17.13 17.25 19.75C17.25 22.32 19.26 24.4 21.88 24.49C21.96 24.48 22.04 24.48 22.1 24.49C22.12 24.49 22.13 24.49 22.15 24.49C22.16 24.49 22.16 24.49 22.17 24.49C24.73 24.4 26.74 22.32 26.75 19.75C26.75 17.13 24.62 15 22 15Z" fill="white"/>
<path id="Vector_2" d="M27.0809 27.1499C24.2909 25.2899 19.7409 25.2899 16.9309 27.1499C15.6609 27.9999 14.9609 29.1499 14.9609 30.3799C14.9609 31.6099 15.6609 32.7499 16.9209 33.5899C18.3209 34.5299 20.1609 34.9999 22.0009 34.9999C23.8409 34.9999 25.6809 34.5299 27.0809 33.5899C28.3409 32.7399 29.0409 31.5999 29.0409 30.3599C29.0309 29.1299 28.3409 27.9899 27.0809 27.1499Z" fill="white"/>
<path id="Vector_3" d="M32.9894 20.3401C33.1494 22.2801 31.7694 23.9801 29.8594 24.2101C29.8494 24.2101 29.8494 24.2101 29.8394 24.2101H29.8094C29.7494 24.2101 29.6894 24.2101 29.6394 24.2301C28.6694 24.2801 27.7794 23.9701 27.1094 23.4001C28.1394 22.4801 28.7294 21.1001 28.6094 19.6001C28.5394 18.7901 28.2594 18.0501 27.8394 17.4201C28.2194 17.2301 28.6594 17.1101 29.1094 17.0701C31.0694 16.9001 32.8194 18.3601 32.9894 20.3401Z" fill="white"/>
<path id="Vector_4" d="M34.9902 29.5904C34.9102 30.5604 34.2902 31.4004 33.2502 31.9704C32.2502 32.5204 30.9902 32.7804 29.7402 32.7504C30.4602 32.1004 30.8802 31.2904 30.9602 30.4304C31.0602 29.1904 30.4702 28.0004 29.2902 27.0504C28.6202 26.5204 27.8402 26.1004 26.9902 25.7904C29.2002 25.1504 31.9802 25.5804 33.6902 26.9604C34.6102 27.7004 35.0802 28.6304 34.9902 29.5904Z" fill="white"/>
</g>
</g>
</g>
</svg>
