<svg width="50" height="50" viewBox="0 0 50 50" fill="none" xmlns="http://www.w3.org/2000/svg">
<g id="vuesax/bold/gift">
<g id="vuesax/bold/gift_2">
<path id="Vector" d="M33 25V31C33 33.21 31.21 35 29 35H21C18.79 35 17 33.21 17 31V25C17 24.45 17.45 24 18 24H19.97C20.52 24 20.97 24.45 20.97 25V28.14C20.97 28.88 21.38 29.56 22.03 29.91C22.32 30.07 22.64 30.15 22.97 30.15C23.35 30.15 23.73 30.04 24.06 29.82L25.01 29.2L25.89 29.79C26.5 30.2 27.28 30.25 27.93 29.9C28.59 29.55 29 28.88 29 28.13V25C29 24.45 29.45 24 30 24H32C32.55 24 33 24.45 33 25Z" fill="white"/>
<path id="Vector_2" d="M34.5 20V21C34.5 22.1 33.97 23 32.5 23H17.5C15.97 23 15.5 22.1 15.5 21V20C15.5 18.9 15.97 18 17.5 18H32.5C33.97 18 34.5 18.9 34.5 20Z" fill="white"/>
<path id="Vector_3" d="M24.6408 18.0004H19.1208C18.7808 17.6304 18.7908 17.0604 19.1508 16.7004L20.5708 15.2804C20.9408 14.9104 21.5508 14.9104 21.9208 15.2804L24.6408 18.0004Z" fill="white"/>
<path id="Vector_4" d="M30.8696 18.0004H25.3496L28.0696 15.2804C28.4396 14.9104 29.0496 14.9104 29.4196 15.2804L30.8396 16.7004C31.1996 17.0604 31.2096 17.6304 30.8696 18.0004Z" fill="white"/>
<path id="Vector_5" d="M26.9695 24C27.5195 24 27.9695 24.45 27.9695 25V28.13C27.9695 28.93 27.0795 29.41 26.4195 28.96L25.5195 28.36C25.1895 28.14 24.7595 28.14 24.4195 28.36L23.4795 28.98C22.8195 29.42 21.9395 28.94 21.9395 28.15V25C21.9395 24.45 22.3895 24 22.9395 24H26.9695Z" fill="white"/>
</g>
</g>
</svg>
