<svg width="50" height="50" viewBox="0 0 50 50" fill="none" xmlns="http://www.w3.org/2000/svg">
<g id="vuesax/bold/shield-tick">
<g id="vuesax/bold/shield-tick_2">
<path id="Vector" d="M31.5408 17.1198L26.0408 15.0598C25.4708 14.8498 24.5408 14.8498 23.9708 15.0598L18.4708 17.1198C17.4108 17.5198 16.5508 18.7598 16.5508 19.8898V27.9898C16.5508 28.7998 17.0808 29.8698 17.7308 30.3498L23.2308 34.4598C24.2008 35.1898 25.7908 35.1898 26.7608 34.4598L32.2608 30.3498C32.9108 29.8598 33.4408 28.7998 33.4408 27.9898V19.8898C33.4508 18.7598 32.5908 17.5198 31.5408 17.1198ZM28.4808 22.7198L24.1808 27.0198C24.0308 27.1698 23.8408 27.2398 23.6508 27.2398C23.4608 27.2398 23.2708 27.1698 23.1208 27.0198L21.5208 25.3998C21.2308 25.1098 21.2308 24.6298 21.5208 24.3398C21.8108 24.0498 22.2908 24.0498 22.5808 24.3398L23.6608 25.4198L27.4308 21.6498C27.7208 21.3598 28.2008 21.3598 28.4908 21.6498C28.7808 21.9398 28.7808 22.4298 28.4808 22.7198Z" fill="white"/>
</g>
</g>
</svg>
