<svg width="50" height="50" viewBox="0 0 50 50" fill="none" xmlns="http://www.w3.org/2000/svg">
<path d="M33.0402 19.8197L27.2802 15.7897C25.7102 14.6897 23.3002 14.7497 21.7902 15.9197L16.7802 19.8297C15.7802 20.6097 14.9902 22.2097 14.9902 23.4697V30.3697C14.9902 32.9197 17.0602 34.9997 19.6102 34.9997H30.3902C32.9402 34.9997 35.0102 32.9297 35.0102 30.3797V23.5997C35.0102 22.2497 34.1402 20.5897 33.0402 19.8197ZM29.8802 29.1897C29.8802 29.2797 29.8602 29.3697 29.8302 29.4597C29.7602 29.6297 29.6202 29.7697 29.4502 29.8397C29.3602 29.8797 29.2702 29.8897 29.1802 29.8897H27.3202C26.9302 29.8897 26.6202 29.5797 26.6202 29.1897C26.6202 28.7997 26.9302 28.4897 27.3202 28.4897H27.5002L25.3902 26.3797L24.3702 27.8997C24.2502 28.0697 24.0702 28.1897 23.8602 28.2097C23.6402 28.2297 23.4502 28.1597 23.3002 28.0097L20.3202 25.0297C20.0502 24.7597 20.0502 24.3197 20.3202 24.0397C20.5902 23.7597 21.0302 23.7697 21.3102 24.0397L23.6902 26.4197L24.7102 24.8997C24.8302 24.7297 25.0102 24.6097 25.2202 24.5897C25.4402 24.5697 25.6302 24.6397 25.7802 24.7897L28.5002 27.5097V27.3297C28.5002 26.9397 28.8102 26.6297 29.2002 26.6297C29.5902 26.6297 29.9002 26.9397 29.9002 27.3297V29.1897H29.8802Z" fill="white"/>
</svg>
