<svg width="46" height="44" viewBox="0 0 46 44" fill="none" xmlns="http://www.w3.org/2000/svg">
<path d="M22.1093 0.745359C22.4804 0.018108 23.5196 0.0181086 23.8907 0.74536L30.263 13.2319C30.4083 13.5166 30.681 13.7147 30.9967 13.7649L44.8412 15.9668C45.6476 16.095 45.9687 17.0833 45.3917 17.661L35.4855 27.58C35.2596 27.8062 35.1554 28.1267 35.2052 28.4425L37.3893 42.2899C37.5165 43.0964 36.6759 43.7072 35.9481 43.3369L23.4534 36.9807C23.1685 36.8357 22.8315 36.8357 22.5466 36.9807L10.0519 43.3369C9.32414 43.7072 8.48345 43.0964 8.61066 42.2899L10.7948 28.4425C10.8446 28.1267 10.7404 27.8062 10.5145 27.58L0.608277 17.661C0.0313087 17.0833 0.352424 16.095 1.15877 15.9668L15.0033 13.7649C15.319 13.7147 15.5917 13.5166 15.737 13.2319L22.1093 0.745359Z" fill="#FEC63D"/>
</svg>
