<svg width="36" height="36" viewBox="0 0 36 36" fill="none" xmlns="http://www.w3.org/2000/svg">
<g id="Group 930">
<path id="Vector" fill-rule="evenodd" clip-rule="evenodd" d="M14 8H22C25.3137 8 28 10.6863 28 14V22C28 25.3137 25.3137 28 22 28H14C10.6863 28 8 25.3137 8 22V14C8 10.6863 10.6863 8 14 8ZM14 10C11.7909 10 10 11.7909 10 14V22C10 24.2091 11.7909 26 14 26H22C24.2091 26 26 24.2091 26 22V14C26 11.7909 24.2091 10 22 10H14ZM18 23C15.2386 23 13 20.7614 13 18C13 15.2386 15.2386 13 18 13C20.7614 13 23 15.2386 23 18C23 20.7614 20.7614 23 18 23ZM18 21C19.6569 21 21 19.6569 21 18C21 16.3431 19.6569 15 18 15C16.3431 15 15 16.3431 15 18C15 19.6569 16.3431 21 18 21ZM23 14C22.4477 14 22 13.5523 22 13C22 12.4477 22.4477 12 23 12C23.5523 12 24 12.4477 24 13C24 13.5523 23.5523 14 23 14Z" fill="white"/>
</g>
</svg>
