<svg width="36" height="36" viewBox="0 0 36 36" fill="none" xmlns="http://www.w3.org/2000/svg">
<g id="vk">
<g id="Group 929">
<path id="Vector" d="M27.6727 22.876C27.6727 22.793 27.5897 22.793 27.5897 22.71C27.2576 22.0458 26.5104 21.2155 25.5141 20.3023C25.016 19.8872 24.7669 19.5551 24.6009 19.389C24.3518 19.0569 24.3518 18.8079 24.4348 18.4758C24.5179 18.2267 24.8499 17.8116 25.4311 17.0644C25.7632 16.6493 25.9292 16.4002 26.1783 16.1511C27.4236 14.4907 28.0048 13.4114 27.8387 12.9132L27.7557 12.8302C27.6727 12.7472 27.5897 12.6642 27.4236 12.6642C27.2576 12.5812 27.0085 12.5812 26.7595 12.6642H23.6046C23.5216 12.6642 23.5216 12.6642 23.3555 12.6642C23.2725 12.6642 23.1895 12.6642 23.1895 12.6642H23.1065H23.0234L22.9404 12.7472C22.8574 12.8302 22.8574 12.8302 22.8574 12.9132C22.5253 13.8265 22.1102 14.5737 21.6951 15.4039C21.446 15.819 21.1969 16.2342 20.9479 16.5663C20.6988 16.8984 20.5327 17.1474 20.3667 17.3135C20.2006 17.4795 20.0346 17.5625 19.9516 17.7286C19.8685 17.8116 19.7025 17.8946 19.7025 17.8116C19.6195 17.8116 19.5365 17.8116 19.5365 17.7286C19.4534 17.6456 19.3704 17.5625 19.2874 17.4795C19.2044 17.3965 19.2044 17.2304 19.1213 17.0644C19.1213 16.8983 19.1213 16.7323 19.1213 16.6493C19.1213 16.5663 19.1213 16.3172 19.1213 16.1511C19.1213 15.9021 19.1213 15.736 19.1213 15.653C19.1213 15.4039 19.1213 15.0719 19.1213 14.7398C19.1213 14.4077 19.1213 14.1586 19.1213 13.9925C19.1213 13.8265 19.1213 13.5774 19.1213 13.4114C19.1213 13.1623 19.1213 12.9963 19.1213 12.9132C19.1213 12.8302 19.0383 12.6642 19.0383 12.5812C18.9553 12.4981 18.8723 12.4151 18.7893 12.3321C18.7062 12.2491 18.5402 12.2491 18.4572 12.166C18.0421 12.083 17.5439 12 16.9628 12C15.6344 12 14.7211 12.083 14.389 12.2491C14.223 12.3321 14.057 12.4151 13.9739 12.5812C13.8079 12.7472 13.8079 12.8302 13.8909 12.8302C14.306 12.9133 14.6381 13.0793 14.8042 13.3284L14.8872 13.4944C14.9702 13.5774 14.9702 13.7435 15.0532 13.9925C15.1362 14.2416 15.1362 14.4907 15.1362 14.8228C15.1362 15.3209 15.1362 15.8191 15.1362 16.1511C15.1362 16.5663 15.0532 16.8153 15.0532 17.0644C15.0532 17.3135 14.9702 17.4795 14.8872 17.5625C14.8042 17.7286 14.8042 17.8116 14.7211 17.8116C14.7211 17.8116 14.7211 17.8946 14.6381 17.8946C14.5551 17.8946 14.4721 17.9776 14.306 17.9776C14.223 17.9776 14.057 17.8946 13.9739 17.8116C13.8079 17.7286 13.6418 17.5625 13.5588 17.3965C13.3928 17.2304 13.2267 16.9814 13.0607 16.6493C12.8946 16.3172 12.6456 15.9851 12.4795 15.487L12.3135 15.1549C12.2305 14.9888 12.0644 14.6567 11.8984 14.2416C11.7323 13.8265 11.5663 13.4944 11.4002 13.0793C11.3172 12.9133 11.2342 12.8302 11.1512 12.7472H11.0681C11.0681 12.7472 10.9851 12.6642 10.9021 12.6642C10.8191 12.6642 10.736 12.5812 10.653 12.5812H7.66419C7.33209 12.5812 7.16605 12.6642 7.08303 12.7472L7 12.8302C7 12.8302 7 12.9132 7 12.9963C7 13.0793 7.00001 13.1623 7.08303 13.3284C7.49814 14.3246 7.99628 15.3209 8.49442 16.3172C8.99255 17.2304 9.4907 18.0607 9.82279 18.6418C10.2379 19.223 10.57 19.8042 10.9851 20.3023C11.4002 20.8004 11.6493 21.1325 11.7323 21.2986C11.8984 21.4646 11.9814 21.5476 12.0644 21.6307L12.3135 21.8797C12.4795 22.0458 12.7286 22.2948 13.0607 22.5439C13.3928 22.793 13.8079 23.042 14.223 23.2911C14.6381 23.5402 15.1363 23.7062 15.6344 23.8723C16.2156 24.0383 16.7137 24.1213 17.2118 24.0383H18.4572C18.7062 24.0383 18.8723 23.9553 19.0383 23.7893L19.1213 23.7062C19.1213 23.6232 19.2044 23.6232 19.2044 23.5402C19.2044 23.4572 19.2044 23.3741 19.2044 23.2081C19.2044 22.876 19.2044 22.6269 19.2874 22.3779C19.3704 22.1288 19.3704 21.9628 19.4535 21.7967C19.5365 21.6307 19.6195 21.5476 19.7025 21.4646C19.7855 21.3816 19.8686 21.2986 19.8686 21.2986H19.9516C20.1176 21.2155 20.3667 21.2986 20.5327 21.4646C20.7818 21.6307 21.0309 21.8797 21.1969 22.1288C21.363 22.3779 21.612 22.6269 21.9441 22.959C22.2762 23.2911 22.5253 23.5402 22.6913 23.6232L22.9404 23.7893C23.1064 23.8723 23.2725 23.9553 23.5216 24.0383C23.7706 24.1213 23.9367 24.1213 24.1027 24.1213L26.9255 24.0383C27.1746 24.0383 27.4236 23.9553 27.5897 23.8723C27.7557 23.7893 27.8387 23.7062 27.8387 23.5402C27.8387 23.4572 27.8387 23.2911 27.8387 23.2081C27.6727 23.042 27.6727 22.959 27.6727 22.876Z" fill="white"/>
</g>
</g>
</svg>
