<svg width="24" height="24" viewBox="0 0 24 24" fill="none" xmlns="http://www.w3.org/2000/svg">
<path d="M18.8034 7.69991C16.41 3.99988 11.5235 2.89987 7.73392 5.19989C4.04409 7.4999 2.84739 12.4999 5.24079 16.2L5.44024 16.5L4.64244 19.5L7.6342 18.7L7.93337 18.9C9.2298 19.6 10.626 20 12.0221 20C13.518 20 15.0139 19.6 16.3103 18.8C20.0001 16.4 21.0971 11.4999 18.8034 7.69991ZM16.7092 15.4C16.3103 16 15.8117 16.4 15.1136 16.5C14.7147 16.5 14.2161 16.7 12.2216 15.9C10.5262 15.1 9.13008 13.8 8.13282 12.2999C7.53447 11.5999 7.2353 10.6999 7.13557 9.79992C7.13557 8.99992 7.43475 8.29991 7.93337 7.79991C8.13282 7.59991 8.33227 7.4999 8.53173 7.4999H9.03035C9.2298 7.4999 9.42925 7.4999 9.52898 7.89991C9.72843 8.39991 10.0579 8.96502 10.2271 9.69992C10.2644 9.86228 10.319 9.95214 10.3096 10.1185C10.2982 10.3193 10.2438 10.4362 10.1273 10.5999C10.0004 10.7783 9.96076 10.8339 9.82815 10.9999C9.69703 11.1641 9.52898 11.2999 9.6287 11.4999C10.0276 12.0999 10.5262 12.6999 11.0249 13.1999C11.6232 13.7 12.2216 14.1 12.9196 14.4C13.1191 14.5 13.3185 14.5 13.4183 14.3C13.518 14.1 14.0166 13.6 14.2161 13.3999C14.4155 13.1999 14.5152 13.1999 14.7147 13.2999L16.3103 14.1C16.5097 14.2 16.7092 14.3 16.8089 14.4C16.9086 14.7 16.9086 15.1 16.7092 15.4Z" fill="#00A884"/>
</svg>
