<svg width="19" height="18" viewBox="0 0 19 18" fill="none" xmlns="http://www.w3.org/2000/svg">
<path d="M0 9C0 4.03053 4.02855 0 8.99802 0H10C14.9706 0 19 4.02944 19 9C19 13.9706 14.9706 18 10 18H8.99802C4.02855 18 0 13.9695 0 9Z" fill="#1E1F25"/>
<g clip-path="url(#clip0_4742_55804)">
<path d="M11.6606 7.4025L11.5953 7.31358C14.927 4.6238 14.5568 4.22367 14.5568 4.22367C14.2302 3.868 13.8817 3.55678 13.5116 3.29003C12.9889 2.91213 12.4228 2.60091 11.813 2.40085C9.28703 1.46721 6.28196 2.20078 4.47456 4.22367C2.05743 6.86899 2.01388 11.0704 4.45278 13.7602C7.02234 16.5833 11.3993 16.7611 14.1648 14.1603L14.2084 14.1158L14.2519 14.0714L14.2737 14.0491C14.3173 14.0047 14.3608 13.9602 14.3826 13.9158C15.1665 12.8932 13.9906 10.1145 11.6606 7.4025ZM13.7946 13.4045C13.6204 13.5823 12.8801 13.6045 11.6824 12.9599C10.5718 12.3597 9.33058 11.3371 8.15469 10.0923C7.9587 10.2479 11.2251 7.6248 11.0727 7.75817C12.0961 8.95857 12.9672 10.2701 13.4245 11.3594C13.9689 12.6264 13.9471 13.2489 13.7946 13.4045Z" fill="white"/>
</g>
<defs>
<clipPath id="clip0_4742_55804">
<rect width="13.7143" height="14" fill="white" transform="translate(2.64258 2)"/>
</clipPath>
</defs>
</svg>
