<svg width="150" height="16" viewBox="0 0 150 16" fill="none" xmlns="http://www.w3.org/2000/svg">
<g clip-path="url(#clip0_3158_85602)">
<path fill-rule="evenodd" clip-rule="evenodd" d="M11.4266 3.73629H3.20504V11.9579H11.4266V3.73629ZM0 0.53125V15.1629H14.6317V0.53125H0Z" fill="#6B48F5"/>
<path d="M18.6504 0.817871H22.6518V15.1548H18.6504V0.817871Z" fill="white"/>
<path d="M36.3726 7.6791C37.181 7.96585 37.8142 8.41643 38.2723 9.03087C38.7303 9.63166 38.9594 10.3622 38.9594 11.2224C38.9594 12.4786 38.4609 13.4481 37.4639 14.1307C36.4669 14.8134 35.0253 15.1548 33.1391 15.1548H25.5V0.817871H32.7349C34.5403 0.817871 35.9145 1.15923 36.8576 1.84194C37.8007 2.511 38.2723 3.419 38.2723 4.56594C38.2723 5.24866 38.1039 5.8631 37.767 6.40926C37.4437 6.94178 36.9789 7.36506 36.3726 7.6791ZM29.461 3.7467V6.51167H32.2095C33.5568 6.51167 34.2304 6.04743 34.2304 5.11895C34.2304 4.20412 33.5568 3.7467 32.2095 3.7467H29.461ZM32.8157 12.2259C34.2169 12.2259 34.9175 11.7412 34.9175 10.7718C34.9175 9.80233 34.2169 9.31761 32.8157 9.31761H29.461V12.2259H32.8157Z" fill="white"/>
<path d="M48.1642 15.4416C46.6686 15.4416 45.3214 15.1207 44.1223 14.4791C42.9367 13.8373 42.0004 12.9497 41.3133 11.8165C40.6396 10.6831 40.3027 9.40648 40.3027 7.98645C40.3027 6.56641 40.6396 5.28974 41.3133 4.15645C42.0004 3.02314 42.9367 2.13562 44.1223 1.49387C45.3214 0.852124 46.6686 0.53125 48.1642 0.53125C49.6597 0.53125 51.0002 0.852124 52.1857 1.49387C53.3849 2.13562 54.3213 3.02314 54.9949 4.15645C55.682 5.28974 56.0256 6.56641 56.0256 7.98645C56.0256 9.40648 55.682 10.6831 54.9949 11.8165C54.3213 12.9497 53.3849 13.8373 52.1857 14.4791C51.0002 15.1207 49.6597 15.4416 48.1642 15.4416ZM48.1642 12.0827C48.8782 12.0827 49.5249 11.912 50.1042 11.5707C50.6835 11.2293 51.1416 10.7514 51.4785 10.137C51.8152 9.50889 51.9837 8.79204 51.9837 7.98645C51.9837 7.18085 51.8152 6.47083 51.4785 5.85639C51.1416 5.2283 50.6835 4.74358 50.1042 4.40221C49.5249 4.06086 48.8782 3.89018 48.1642 3.89018C47.4501 3.89018 46.8034 4.06086 46.2241 4.40221C45.6448 4.74358 45.1866 5.2283 44.8498 5.85639C44.513 6.47083 44.3446 7.18085 44.3446 7.98645C44.3446 8.79204 44.513 9.50889 44.8498 10.137C45.1866 10.7514 45.6448 11.2293 46.2241 11.5707C46.8034 11.912 47.4501 12.0827 48.1642 12.0827Z" fill="white"/>
<path d="M63.5895 10.7057L66.5226 15.143H71.1348L60.8586 0.829102H56.3475L61.2834 7.90429L56.125 15.143H60.6968L63.5895 10.7057Z" fill="white"/>
<path d="M70.8111 0.829102H66.4822L64.7324 2.6931L67.31 5.85944L70.8111 0.829102Z" fill="white"/>
<path d="M85.5989 15.4027C84.4458 15.4027 83.3266 15.2601 82.2412 14.9748C81.1559 14.6896 80.274 14.3092 79.5957 13.8338L80.9184 10.8591C81.5562 11.2802 82.2955 11.6198 83.1366 11.8779C83.9778 12.1359 84.8054 12.265 85.6193 12.265C87.1659 12.265 87.9393 11.8779 87.9393 11.1036C87.9393 10.6961 87.7154 10.3973 87.2677 10.2071C86.8335 10.0034 86.1281 9.79283 85.1512 9.5755C84.0795 9.34459 83.1841 9.10008 82.465 8.842C81.7461 8.57034 81.1287 8.14246 80.6132 7.55838C80.0977 6.97431 79.8399 6.18648 79.8399 5.19491C79.8399 4.32558 80.0774 3.54455 80.5521 2.8518C81.027 2.14547 81.7325 1.58856 82.6686 1.18107C83.6182 0.773572 84.7782 0.569824 86.1485 0.569824C87.0845 0.569824 88.0071 0.67849 88.9161 0.895822C89.8251 1.09957 90.6255 1.40519 91.3173 1.81268L90.076 4.80778C88.7194 4.07429 87.4033 3.70755 86.1281 3.70755C85.3277 3.70755 84.7443 3.8298 84.3779 4.07429C84.0117 4.30521 83.8285 4.61083 83.8285 4.99116C83.8285 5.37149 84.0456 5.65674 84.4797 5.8469C84.9139 6.03706 85.6125 6.23403 86.5758 6.43777C87.6611 6.66868 88.5565 6.91997 89.262 7.19164C89.981 7.44972 90.5984 7.8708 91.1138 8.45488C91.6429 9.02538 91.9075 9.80641 91.9075 10.798C91.9075 11.6537 91.6701 12.428 91.1952 13.1207C90.7205 13.8135 90.0082 14.3703 89.0586 14.7914C88.1088 15.199 86.9556 15.4027 85.5989 15.4027Z" fill="white"/>
<path d="M96.6018 4.05432H92.2266V0.855469H104.986V4.05432H100.631V15.1178H96.6018V4.05432Z" fill="white"/>
<path d="M113.472 15.4027C111.967 15.4027 110.61 15.0835 109.403 14.4451C108.209 13.8067 107.266 12.9237 106.574 11.7963C105.896 10.6689 105.557 9.39891 105.557 7.98626C105.557 6.57361 105.896 5.30358 106.574 4.17617C107.266 3.04876 108.209 2.16585 109.403 1.52744C110.61 0.889029 111.967 0.569824 113.472 0.569824C114.979 0.569824 116.328 0.889029 117.522 1.52744C118.73 2.16585 119.673 3.04876 120.351 4.17617C121.043 5.30358 121.389 6.57361 121.389 7.98626C121.389 9.39891 121.043 10.6689 120.351 11.7963C119.673 12.9237 118.73 13.8067 117.522 14.4451C116.328 15.0835 114.979 15.4027 113.472 15.4027ZM113.472 12.0612C114.192 12.0612 114.843 11.8915 115.427 11.5519C116.01 11.2123 116.471 10.7369 116.81 10.1256C117.149 9.50079 117.318 8.78767 117.318 7.98626C117.318 7.18485 117.149 6.47852 116.81 5.86728C116.471 5.24245 116.01 4.76025 115.427 4.42067C114.843 4.08109 114.192 3.91129 113.472 3.91129C112.754 3.91129 112.103 4.08109 111.519 4.42067C110.936 4.76025 110.474 5.24245 110.135 5.86728C109.797 6.47852 109.626 7.18485 109.626 7.98626C109.626 8.78767 109.797 9.50079 110.135 10.1256C110.474 10.7369 110.936 11.2123 111.519 11.5519C112.103 11.8915 112.754 12.0612 113.472 12.0612Z" fill="white"/>
<path d="M129.728 11.3281H127.529V15.1178H123.5V0.855469H130.012C131.301 0.855469 132.421 1.0728 133.37 1.50746C134.32 1.92855 135.052 2.53979 135.568 3.3412C136.083 4.12902 136.341 5.05947 136.341 6.13255C136.341 7.16487 136.096 8.06815 135.609 8.8424C135.133 9.60305 134.448 10.2007 133.553 10.6354L136.626 15.1178H132.312L129.728 11.3281ZM132.271 6.13255C132.271 5.46697 132.06 4.95081 131.64 4.58406C131.219 4.21731 130.596 4.03394 129.767 4.03394H127.529V8.21078H129.767C130.596 8.21078 131.219 8.03419 131.64 7.68104C132.06 7.31429 132.271 6.79813 132.271 6.13255Z" fill="white"/>
<path d="M149.999 12.0005V15.1178H138.562V0.855469H149.735V3.97282H142.552V6.37704H148.88V9.39252H142.552V12.0005H149.999Z" fill="white"/>
<path d="M75.4164 15.2986C76.3971 15.2986 77.1922 14.5036 77.1922 13.5228C77.1922 12.5421 76.3971 11.7471 75.4164 11.7471C74.4357 11.7471 73.6406 12.5421 73.6406 13.5228C73.6406 14.5036 74.4357 15.2986 75.4164 15.2986Z" fill="#6B48F5"/>
</g>
<defs>
<clipPath id="clip0_3158_85602">
<rect width="150" height="16" fill="white"/>
</clipPath>
</defs>
</svg>
