<svg width="400" height="156" viewBox="0 0 400 156" fill="none" xmlns="http://www.w3.org/2000/svg">
<rect width="400" height="156" rx="15" fill="white"/>
<path d="M12.2793 12.5977H12.9414V21H12.0391V14.2793H10.4805V13.7402C10.7539 13.7324 11 13.6875 11.2188 13.6055C11.4375 13.5195 11.6113 13.4238 11.7402 13.3184C11.8691 13.209 11.9746 13.0996 12.0566 12.9902C12.1426 12.8809 12.2012 12.791 12.2324 12.7207L12.2793 12.5977ZM17.6758 18C16.8672 18 16.1953 17.7363 15.6602 17.209C15.125 16.6816 14.8574 16.0254 14.8574 15.2402C14.8574 14.4551 15.1289 13.7988 15.6719 13.2715C16.2148 12.7441 16.9023 12.4805 17.7344 12.4805C18.5664 12.4805 19.2539 12.7441 19.7969 13.2715C20.3438 13.7988 20.6172 14.4551 20.6172 15.2402C20.6172 15.5449 20.5664 15.8477 20.4648 16.1484C20.3633 16.4453 20.2656 16.6699 20.1719 16.8223L20.0137 17.0391L17.4941 21H16.5977L18.5781 17.8828C18.3438 17.9609 18.043 18 17.6758 18ZM16.293 13.8516C15.9336 14.2031 15.7539 14.666 15.7539 15.2402C15.7539 15.8145 15.9336 16.2793 16.293 16.6348C16.6562 16.9863 17.1367 17.1621 17.7344 17.1621C18.3359 17.1621 18.8164 16.9863 19.1758 16.6348C19.5352 16.2793 19.7148 15.8145 19.7148 15.2402C19.7148 14.666 19.5352 14.2031 19.1758 13.8516C18.8164 13.4961 18.3359 13.3184 17.7344 13.3184C17.1367 13.3184 16.6562 13.4961 16.293 13.8516ZM23.6172 14.2441C23.1328 14.8613 22.8906 15.7148 22.8906 16.8047C22.8906 17.8906 23.1328 18.7422 23.6172 19.3594C24.1016 19.9727 24.6836 20.2793 25.3633 20.2793C26.0352 20.2793 26.6113 19.9707 27.0918 19.3535C27.5723 18.7324 27.8125 17.8809 27.8125 16.7988C27.8125 15.709 27.5703 14.8574 27.0859 14.2441C26.6016 13.627 26.0234 13.3184 25.3516 13.3184C24.6797 13.3184 24.1016 13.627 23.6172 14.2441ZM27.7188 13.6699C28.3828 14.459 28.7148 15.502 28.7148 16.7988C28.7148 18.0957 28.3848 19.1406 27.7246 19.9336C27.0645 20.7227 26.2773 21.1172 25.3633 21.1172C24.4414 21.1172 23.6484 20.7227 22.9844 19.9336C22.3242 19.1406 21.9941 18.0957 21.9941 16.7988C21.9941 15.502 22.3262 14.459 22.9902 13.6699C23.6543 12.877 24.4414 12.4805 25.3516 12.4805C26.2656 12.4805 27.0547 12.877 27.7188 13.6699ZM31.2285 19.3828V21H30.3906V12.5977H31.2285V18.2988L34.1113 15.2402H35.1309L32.9102 17.5781L35.3711 21H34.4102L32.3711 18.1816L31.2285 19.3828Z" fill="#A9A9BD"/>
<path d="M12.2793 38.3477H12.9414V46.75H12.0391V40.0293H10.4805V39.4902C10.7539 39.4824 11 39.4375 11.2188 39.3555C11.4375 39.2695 11.6113 39.1738 11.7402 39.0684C11.8691 38.959 11.9746 38.8496 12.0566 38.7402C12.1426 38.6309 12.2012 38.541 12.2324 38.4707L12.2793 38.3477ZM16.5977 41.4414C16.8828 41.6992 17.2617 41.8281 17.7344 41.8281C18.207 41.8281 18.584 41.6992 18.8652 41.4414C19.1504 41.1797 19.293 40.8496 19.293 40.4512C19.293 40.0488 19.1504 39.7188 18.8652 39.4609C18.584 39.1992 18.207 39.0684 17.7344 39.0684C17.2617 39.0684 16.8828 39.1992 16.5977 39.4609C16.3164 39.7188 16.1758 40.0488 16.1758 40.4512C16.1758 40.8496 16.3164 41.1797 16.5977 41.4414ZM15.9941 38.9043C16.4746 38.4551 17.0547 38.2305 17.7344 38.2305C18.4141 38.2305 18.9941 38.4551 19.4746 38.9043C19.9551 39.3496 20.1953 39.8652 20.1953 40.4512C20.1953 40.6816 20.1562 40.9023 20.0781 41.1133C20.0039 41.3203 19.9141 41.4863 19.8086 41.6113C19.707 41.7324 19.6035 41.8398 19.498 41.9336C19.3965 42.0234 19.3086 42.0898 19.2344 42.1328L19.1172 42.1914C19.1562 42.207 19.207 42.2285 19.2695 42.2559C19.3359 42.2832 19.4512 42.3574 19.6152 42.4785C19.7793 42.5996 19.9238 42.7324 20.0488 42.877C20.1777 43.0176 20.293 43.2168 20.3945 43.4746C20.5 43.7285 20.5527 44 20.5527 44.2891C20.5527 44.9922 20.2832 45.5977 19.7441 46.1055C19.2051 46.6133 18.5352 46.8672 17.7344 46.8672C16.9336 46.8672 16.2637 46.6133 15.7246 46.1055C15.1855 45.5977 14.916 44.9922 14.916 44.2891C14.916 44 14.9648 43.7305 15.0625 43.4805C15.1641 43.2266 15.2852 43.0254 15.4258 42.877C15.5664 42.7246 15.7051 42.5938 15.8418 42.4844C15.9824 42.375 16.1055 42.3008 16.2109 42.2617L16.3574 42.1914C16.3262 42.1758 16.2852 42.1562 16.2344 42.1328C16.1875 42.1055 16.1016 42.043 15.9766 41.9453C15.8516 41.8438 15.7402 41.7324 15.6426 41.6113C15.5488 41.4863 15.4629 41.3203 15.3848 41.1133C15.3105 40.9023 15.2734 40.6816 15.2734 40.4512C15.2734 39.8652 15.5137 39.3496 15.9941 38.9043ZM19.0879 43.0762C18.7129 42.7246 18.2617 42.5488 17.7344 42.5488C17.207 42.5488 16.7539 42.7246 16.375 43.0762C16 43.4277 15.8125 43.832 15.8125 44.2891C15.8125 44.7617 15.9883 45.1699 16.3398 45.5137C16.6953 45.8574 17.1602 46.0293 17.7344 46.0293C18.3125 46.0293 18.7773 45.8574 19.1289 45.5137C19.4805 45.1699 19.6562 44.7617 19.6562 44.2891C19.6562 43.832 19.4668 43.4277 19.0879 43.0762ZM24.9941 41.3477C25.8027 41.3477 26.4746 41.6133 27.0098 42.1445C27.5449 42.6719 27.8125 43.3262 27.8125 44.1074C27.8125 44.9238 27.5488 45.5879 27.0215 46.0996C26.4941 46.6113 25.7988 46.8672 24.9355 46.8672C24.5918 46.8672 24.2598 46.8242 23.9395 46.7383C23.6191 46.6484 23.3555 46.5449 23.1484 46.4277C22.9453 46.3066 22.7656 46.1836 22.6094 46.0586C22.4531 45.9336 22.3438 45.8281 22.2812 45.7422L22.1758 45.6074L22.7734 45.0098C22.7891 45.0332 22.8164 45.0703 22.8555 45.1211C22.8984 45.168 22.9863 45.25 23.1191 45.3672C23.2559 45.4805 23.4004 45.584 23.5527 45.6777C23.7051 45.7676 23.9043 45.8496 24.1504 45.9238C24.4004 45.9941 24.6621 46.0293 24.9355 46.0293C25.5371 46.0293 26.0176 45.8535 26.377 45.502C26.7363 45.1504 26.916 44.6855 26.916 44.1074C26.916 43.541 26.7363 43.0801 26.377 42.7246C26.0215 42.3691 25.5605 42.1914 24.9941 42.1914C24.6191 42.1914 24.2754 42.2676 23.9629 42.4199C23.6504 42.5723 23.4336 42.7188 23.3125 42.8594L23.1309 43.0879H22.4746L22.7734 38.3477H27.2734V39.1914H23.5527L23.3711 41.8281C23.418 41.7969 23.4844 41.7539 23.5703 41.6992C23.6562 41.6406 23.8379 41.5684 24.1152 41.4824C24.3965 41.3926 24.6895 41.3477 24.9941 41.3477ZM30.3965 45.1328V46.75H29.5586V38.3477H30.3965V44.0488L33.2793 40.9902H34.2988L32.0781 43.3281L34.5391 46.75H33.5781L31.5391 43.9316L30.3965 45.1328Z" fill="#A9A9BD"/>
<path d="M12.2793 64.0977H12.9414V72.5H12.0391V65.7793H10.4805V65.2402C10.7539 65.2324 11 65.1875 11.2188 65.1055C11.4375 65.0195 11.6113 64.9238 11.7402 64.8184C11.8691 64.709 11.9746 64.5996 12.0566 64.4902C12.1426 64.3809 12.2012 64.291 12.2324 64.2207L12.2793 64.0977ZM16.5977 67.1914C16.8828 67.4492 17.2617 67.5781 17.7344 67.5781C18.207 67.5781 18.584 67.4492 18.8652 67.1914C19.1504 66.9297 19.293 66.5996 19.293 66.2012C19.293 65.7988 19.1504 65.4688 18.8652 65.2109C18.584 64.9492 18.207 64.8184 17.7344 64.8184C17.2617 64.8184 16.8828 64.9492 16.5977 65.2109C16.3164 65.4688 16.1758 65.7988 16.1758 66.2012C16.1758 66.5996 16.3164 66.9297 16.5977 67.1914ZM15.9941 64.6543C16.4746 64.2051 17.0547 63.9805 17.7344 63.9805C18.4141 63.9805 18.9941 64.2051 19.4746 64.6543C19.9551 65.0996 20.1953 65.6152 20.1953 66.2012C20.1953 66.4316 20.1562 66.6523 20.0781 66.8633C20.0039 67.0703 19.9141 67.2363 19.8086 67.3613C19.707 67.4824 19.6035 67.5898 19.498 67.6836C19.3965 67.7734 19.3086 67.8398 19.2344 67.8828L19.1172 67.9414C19.1562 67.957 19.207 67.9785 19.2695 68.0059C19.3359 68.0332 19.4512 68.1074 19.6152 68.2285C19.7793 68.3496 19.9238 68.4824 20.0488 68.627C20.1777 68.7676 20.293 68.9668 20.3945 69.2246C20.5 69.4785 20.5527 69.75 20.5527 70.0391C20.5527 70.7422 20.2832 71.3477 19.7441 71.8555C19.2051 72.3633 18.5352 72.6172 17.7344 72.6172C16.9336 72.6172 16.2637 72.3633 15.7246 71.8555C15.1855 71.3477 14.916 70.7422 14.916 70.0391C14.916 69.75 14.9648 69.4805 15.0625 69.2305C15.1641 68.9766 15.2852 68.7754 15.4258 68.627C15.5664 68.4746 15.7051 68.3438 15.8418 68.2344C15.9824 68.125 16.1055 68.0508 16.2109 68.0117L16.3574 67.9414C16.3262 67.9258 16.2852 67.9062 16.2344 67.8828C16.1875 67.8555 16.1016 67.793 15.9766 67.6953C15.8516 67.5938 15.7402 67.4824 15.6426 67.3613C15.5488 67.2363 15.4629 67.0703 15.3848 66.8633C15.3105 66.6523 15.2734 66.4316 15.2734 66.2012C15.2734 65.6152 15.5137 65.0996 15.9941 64.6543ZM19.0879 68.8262C18.7129 68.4746 18.2617 68.2988 17.7344 68.2988C17.207 68.2988 16.7539 68.4746 16.375 68.8262C16 69.1777 15.8125 69.582 15.8125 70.0391C15.8125 70.5117 15.9883 70.9199 16.3398 71.2637C16.6953 71.6074 17.1602 71.7793 17.7344 71.7793C18.3125 71.7793 18.7773 71.6074 19.1289 71.2637C19.4805 70.9199 19.6562 70.5117 19.6562 70.0391C19.6562 69.582 19.4668 69.1777 19.0879 68.8262ZM23.6172 65.7441C23.1328 66.3613 22.8906 67.2148 22.8906 68.3047C22.8906 69.3906 23.1328 70.2422 23.6172 70.8594C24.1016 71.4727 24.6836 71.7793 25.3633 71.7793C26.0352 71.7793 26.6113 71.4707 27.0918 70.8535C27.5723 70.2324 27.8125 69.3809 27.8125 68.2988C27.8125 67.209 27.5703 66.3574 27.0859 65.7441C26.6016 65.127 26.0234 64.8184 25.3516 64.8184C24.6797 64.8184 24.1016 65.127 23.6172 65.7441ZM27.7188 65.1699C28.3828 65.959 28.7148 67.002 28.7148 68.2988C28.7148 69.5957 28.3848 70.6406 27.7246 71.4336C27.0645 72.2227 26.2773 72.6172 25.3633 72.6172C24.4414 72.6172 23.6484 72.2227 22.9844 71.4336C22.3242 70.6406 21.9941 69.5957 21.9941 68.2988C21.9941 67.002 22.3262 65.959 22.9902 65.1699C23.6543 64.377 24.4414 63.9805 25.3516 63.9805C26.2656 63.9805 27.0547 64.377 27.7188 65.1699ZM31.2285 70.8828V72.5H30.3906V64.0977H31.2285V69.7988L34.1113 66.7402H35.1309L32.9102 69.0781L35.3711 72.5H34.4102L32.3711 69.6816L31.2285 70.8828Z" fill="#A9A9BD"/>
<path d="M12.2793 89.8477H12.9414V98.25H12.0391V91.5293H10.4805V90.9902C10.7539 90.9824 11 90.9375 11.2188 90.8555C11.4375 90.7695 11.6113 90.6738 11.7402 90.5684C11.8691 90.459 11.9746 90.3496 12.0566 90.2402C12.1426 90.1309 12.2012 90.041 12.2324 89.9707L12.2793 89.8477ZM14.5527 89.8477H19.8379V90.6914L16.1172 98.25H15.2148L18.9355 90.6914H14.5527V89.8477ZM23.8574 92.8477C24.666 92.8477 25.3379 93.1133 25.873 93.6445C26.4082 94.1719 26.6758 94.8262 26.6758 95.6074C26.6758 96.4238 26.4121 97.0879 25.8848 97.5996C25.3574 98.1113 24.6621 98.3672 23.7988 98.3672C23.4551 98.3672 23.123 98.3242 22.8027 98.2383C22.4824 98.1484 22.2188 98.0449 22.0117 97.9277C21.8086 97.8066 21.6289 97.6836 21.4727 97.5586C21.3164 97.4336 21.207 97.3281 21.1445 97.2422L21.0391 97.1074L21.6367 96.5098C21.6523 96.5332 21.6797 96.5703 21.7188 96.6211C21.7617 96.668 21.8496 96.75 21.9824 96.8672C22.1191 96.9805 22.2637 97.084 22.416 97.1777C22.5684 97.2676 22.7676 97.3496 23.0137 97.4238C23.2637 97.4941 23.5254 97.5293 23.7988 97.5293C24.4004 97.5293 24.8809 97.3535 25.2402 97.002C25.5996 96.6504 25.7793 96.1855 25.7793 95.6074C25.7793 95.041 25.5996 94.5801 25.2402 94.2246C24.8848 93.8691 24.4238 93.6914 23.8574 93.6914C23.4824 93.6914 23.1387 93.7676 22.8262 93.9199C22.5137 94.0723 22.2969 94.2188 22.1758 94.3594L21.9941 94.5879H21.3379L21.6367 89.8477H26.1367V90.6914H22.416L22.2344 93.3281C22.2812 93.2969 22.3477 93.2539 22.4336 93.1992C22.5195 93.1406 22.7012 93.0684 22.9785 92.9824C23.2598 92.8926 23.5527 92.8477 23.8574 92.8477ZM29.2598 96.6328V98.25H28.4219V89.8477H29.2598V95.5488L32.1426 92.4902H33.1621L30.9414 94.8281L33.4023 98.25H32.4414L30.4023 95.4316L29.2598 96.6328Z" fill="#A9A9BD"/>
<path d="M12.2793 115.598H12.9414V124H12.0391V117.279H10.4805V116.74C10.7539 116.732 11 116.688 11.2188 116.605C11.4375 116.52 11.6113 116.424 11.7402 116.318C11.8691 116.209 11.9746 116.1 12.0566 115.99C12.1426 115.881 12.2012 115.791 12.2324 115.721L12.2793 115.598ZM14.5527 115.598H19.8379V116.441L16.1172 124H15.2148L18.9355 116.441H14.5527V115.598ZM22.2344 117.244C21.75 117.861 21.5078 118.715 21.5078 119.805C21.5078 120.891 21.75 121.742 22.2344 122.359C22.7188 122.973 23.3008 123.279 23.9805 123.279C24.6523 123.279 25.2285 122.971 25.709 122.354C26.1895 121.732 26.4297 120.881 26.4297 119.799C26.4297 118.709 26.1875 117.857 25.7031 117.244C25.2188 116.627 24.6406 116.318 23.9688 116.318C23.2969 116.318 22.7188 116.627 22.2344 117.244ZM26.3359 116.67C27 117.459 27.332 118.502 27.332 119.799C27.332 121.096 27.002 122.141 26.3418 122.934C25.6816 123.723 24.8945 124.117 23.9805 124.117C23.0586 124.117 22.2656 123.723 21.6016 122.934C20.9414 122.141 20.6113 121.096 20.6113 119.799C20.6113 118.502 20.9434 117.459 21.6074 116.67C22.2715 115.877 23.0586 115.48 23.9688 115.48C24.8828 115.48 25.6719 115.877 26.3359 116.67ZM29.8457 122.383V124H29.0078V115.598H29.8457V121.299L32.7285 118.24H33.748L31.5273 120.578L33.9883 124H33.0273L30.9883 121.182L29.8457 122.383Z" fill="#A9A9BD"/>
<path fill-rule="evenodd" clip-rule="evenodd" d="M46 18.03V17H390V18.03H46Z" fill="#E2E2E2"/>
<path fill-rule="evenodd" clip-rule="evenodd" d="M46 43.5203V42.4902H390V43.5203H46Z" fill="#E2E2E2"/>
<path fill-rule="evenodd" clip-rule="evenodd" d="M46 69.0204V67.9805H390V69.0204H46Z" fill="#E2E2E2"/>
<path fill-rule="evenodd" clip-rule="evenodd" d="M46 94.5105V93.4805H390V94.5105H46Z" fill="#E2E2E2"/>
<path fill-rule="evenodd" clip-rule="evenodd" d="M46 120.001V118.971H390V120.001H46Z" fill="#E2E2E2"/>
<path d="M45.9668 54L56.5672 56.5L135.107 67.5L213.164 70.5L292.186 76.5L372.171 97.5L389.517 99.5" stroke="#6B48F5" stroke-width="2"/>
<circle cx="53.2285" cy="57.5" r="3.5" fill="#6B48F5"/>
<circle cx="131.287" cy="67.5" r="3.5" fill="#6B48F5"/>
<circle cx="209.346" cy="70.5" r="3.5" fill="#6B48F5"/>
<circle cx="288.367" cy="76.5" r="3.5" fill="#6B48F5"/>
<circle cx="368.355" cy="97.5" r="3.5" fill="#6B48F5"/>
<path d="M45.9668 7L56.5672 9.5L135.589 23.5L213.164 27.5L292.186 23.5L372.171 17.5H389.999" stroke="#5B6375" stroke-width="2"/>
<circle cx="131.287" cy="23.5" r="3.5" fill="#5B6375"/>
<circle cx="209.346" cy="27.5" r="3.5" fill="#5B6375"/>
<circle cx="288.367" cy="23.5" r="3.5" fill="#5B6375"/>
<circle cx="368.355" cy="17.5" r="3.5" fill="#5B6375"/>
<path d="M45 36L57.0459 36.5L135.104 46.5L213.643 53.5L292.183 56.5L372.168 43.5L389.996 34.5" stroke="#A71A5D" stroke-width="2"/>
<circle cx="53.2285" cy="36.5" r="3.5" fill="#A71A5D"/>
<circle cx="131.281" cy="46.5" r="3.5" fill="#A71A5D"/>
<circle cx="209.348" cy="53.5" r="3.5" fill="#A71A5D"/>
<circle cx="288.361" cy="56.5" r="3.5" fill="#A71A5D"/>
<circle cx="368.355" cy="43.5" r="3.5" fill="#A71A5D"/>
<path d="M53.8828 136.162L50.5195 140.598L47.1621 136.162V143H46.2598V134.598H47.0391L50.5195 139.162L54 134.598H54.7793V143H53.8828V136.162ZM58.2012 139.701L60.4219 139.338C60.4219 138.912 60.2871 138.566 60.0176 138.301C59.748 138.035 59.4023 137.902 58.9805 137.902C58.6758 137.902 58.3887 137.973 58.1191 138.113C57.8535 138.25 57.6602 138.391 57.5391 138.535L57.3574 138.74L56.8184 138.201C56.8418 138.17 56.873 138.131 56.9121 138.084C56.9551 138.033 57.0449 137.947 57.1816 137.826C57.3223 137.701 57.4688 137.59 57.6211 137.492C57.7734 137.395 57.9727 137.309 58.2188 137.234C58.4688 137.156 58.7227 137.117 58.9805 137.117C59.6367 137.117 60.1797 137.33 60.6094 137.756C61.043 138.182 61.2598 138.709 61.2598 139.338V143H60.4219V142.221C60.4062 142.244 60.3809 142.277 60.3457 142.32C60.3145 142.359 60.2402 142.432 60.123 142.537C60.0098 142.639 59.8867 142.73 59.7539 142.812C59.6211 142.891 59.4453 142.961 59.2266 143.023C59.0117 143.086 58.7891 143.117 58.5586 143.117C57.9844 143.117 57.5 142.947 57.1055 142.607C56.7148 142.268 56.5195 141.879 56.5195 141.441C56.5195 140.961 56.6641 140.574 56.9531 140.281C57.2422 139.984 57.6582 139.791 58.2012 139.701ZM58.5586 142.338C59.1016 142.338 59.5469 142.16 59.8945 141.805C60.2461 141.449 60.4219 140.988 60.4219 140.422V140.059L58.4414 140.422C57.7227 140.559 57.3613 140.898 57.3574 141.441C57.3574 141.699 57.4629 141.914 57.6738 142.086C57.8887 142.254 58.1836 142.338 58.5586 142.338ZM64.6406 138.57C64.2227 139.012 64.0137 139.529 64.0137 140.123C64.0137 140.713 64.2227 141.23 64.6406 141.676C65.0625 142.117 65.5332 142.338 66.0527 142.338C66.5488 142.338 66.9922 142.123 67.3828 141.693C67.7773 141.26 67.9746 140.736 67.9746 140.123C67.9746 139.506 67.7773 138.982 67.3828 138.553C66.9922 138.119 66.5488 137.902 66.0527 137.902C65.5332 137.902 65.0625 138.125 64.6406 138.57ZM64.0137 142.098V145.52H63.1758V137.24H64.0137V138.143C64.0293 138.119 64.0566 138.084 64.0957 138.037C64.1387 137.986 64.2227 137.902 64.3477 137.785C64.4766 137.668 64.6152 137.564 64.7637 137.475C64.9121 137.381 65.1016 137.299 65.332 137.229C65.5664 137.154 65.8066 137.117 66.0527 137.117C66.7871 137.117 67.4297 137.412 67.9805 138.002C68.5352 138.592 68.8125 139.299 68.8125 140.123C68.8125 140.943 68.5371 141.648 67.9863 142.238C67.4355 142.824 66.791 143.117 66.0527 143.117C65.8066 143.117 65.5684 143.082 65.3379 143.012C65.1113 142.941 64.9199 142.857 64.7637 142.76C64.6074 142.662 64.4707 142.564 64.3535 142.467C64.2402 142.365 64.1543 142.279 64.0957 142.209L64.0137 142.098Z" fill="#A9A9BD"/>
<path d="M129.568 139.818L127.951 135.857L126.328 139.818H129.568ZM129.932 140.662H125.971L125.01 143H124.049L127.529 134.598H128.367L131.848 143H130.893L129.932 140.662ZM137.191 143V138.031H133.893V143H133.055V137.24H138.035V143H137.191ZM141.422 138.57C141.004 139.012 140.795 139.529 140.795 140.123C140.795 140.713 141.004 141.23 141.422 141.676C141.844 142.117 142.314 142.338 142.834 142.338C143.33 142.338 143.773 142.123 144.164 141.693C144.559 141.26 144.756 140.736 144.756 140.123C144.756 139.506 144.559 138.982 144.164 138.553C143.773 138.119 143.33 137.902 142.834 137.902C142.314 137.902 141.844 138.125 141.422 138.57ZM140.795 142.098V145.52H139.957V137.24H140.795V138.143C140.811 138.119 140.838 138.084 140.877 138.037C140.92 137.986 141.004 137.902 141.129 137.785C141.258 137.668 141.396 137.564 141.545 137.475C141.693 137.381 141.883 137.299 142.113 137.229C142.348 137.154 142.588 137.117 142.834 137.117C143.568 137.117 144.211 137.412 144.762 138.002C145.316 138.592 145.594 139.299 145.594 140.123C145.594 140.943 145.318 141.648 144.768 142.238C144.217 142.824 143.572 143.117 142.834 143.117C142.588 143.117 142.35 143.082 142.119 143.012C141.893 142.941 141.701 142.857 141.545 142.76C141.389 142.662 141.252 142.564 141.135 142.467C141.021 142.365 140.936 142.279 140.877 142.209L140.795 142.098Z" fill="#A9A9BD"/>
<path d="M209.383 136.162L206.02 140.598L202.662 136.162V143H201.76V134.598H202.539L206.02 139.162L209.5 134.598H210.279V143H209.383V136.162ZM213.701 139.701L215.922 139.338C215.922 138.912 215.787 138.566 215.518 138.301C215.248 138.035 214.902 137.902 214.48 137.902C214.176 137.902 213.889 137.973 213.619 138.113C213.354 138.25 213.16 138.391 213.039 138.535L212.857 138.74L212.318 138.201C212.342 138.17 212.373 138.131 212.412 138.084C212.455 138.033 212.545 137.947 212.682 137.826C212.822 137.701 212.969 137.59 213.121 137.492C213.273 137.395 213.473 137.309 213.719 137.234C213.969 137.156 214.223 137.117 214.48 137.117C215.137 137.117 215.68 137.33 216.109 137.756C216.543 138.182 216.76 138.709 216.76 139.338V143H215.922V142.221C215.906 142.244 215.881 142.277 215.846 142.32C215.814 142.359 215.74 142.432 215.623 142.537C215.51 142.639 215.387 142.73 215.254 142.812C215.121 142.891 214.945 142.961 214.727 143.023C214.512 143.086 214.289 143.117 214.059 143.117C213.484 143.117 213 142.947 212.605 142.607C212.215 142.268 212.02 141.879 212.02 141.441C212.02 140.961 212.164 140.574 212.453 140.281C212.742 139.984 213.158 139.791 213.701 139.701ZM214.059 142.338C214.602 142.338 215.047 142.16 215.395 141.805C215.746 141.449 215.922 140.988 215.922 140.422V140.059L213.941 140.422C213.223 140.559 212.861 140.898 212.857 141.441C212.857 141.699 212.963 141.914 213.174 142.086C213.389 142.254 213.684 142.338 214.059 142.338ZM220.486 135.354C220.654 135.529 220.891 135.617 221.195 135.617C221.5 135.617 221.736 135.529 221.904 135.354C222.072 135.178 222.156 134.926 222.156 134.598H222.812C222.812 135.078 222.662 135.469 222.361 135.77C222.064 136.07 221.676 136.221 221.195 136.221C220.715 136.221 220.324 136.07 220.023 135.77C219.723 135.469 219.572 135.078 219.572 134.598H220.234C220.234 134.926 220.318 135.178 220.486 135.354ZM222.994 137.24H223.715V143H222.871V138.682L219.391 143H218.676V137.24H219.514V141.559L222.994 137.24Z" fill="#A9A9BD"/>
<path d="M287.348 143H286.451V136.221L281.289 143H280.51V134.598H281.412V141.383L286.568 134.598H287.348V143ZM296.523 137.996C297.09 138.578 297.373 139.285 297.373 140.117C297.373 140.949 297.088 141.658 296.518 142.244C295.951 142.826 295.277 143.117 294.496 143.117C293.762 143.117 293.119 142.861 292.568 142.35C292.021 141.838 291.703 141.215 291.613 140.48H290.354V143H289.516V137.24H290.354V139.701H291.613C291.711 138.998 292.031 138.393 292.574 137.885C293.117 137.373 293.758 137.117 294.496 137.117C295.281 137.117 295.957 137.41 296.523 137.996ZM293.055 138.547C292.652 138.973 292.451 139.498 292.451 140.123C292.451 140.744 292.652 141.27 293.055 141.699C293.461 142.125 293.939 142.338 294.49 142.338C295.045 142.338 295.523 142.125 295.926 141.699C296.332 141.27 296.535 140.744 296.535 140.123C296.535 139.498 296.332 138.973 295.926 138.547C295.523 138.117 295.045 137.902 294.49 137.902C293.939 137.902 293.461 138.117 293.055 138.547ZM303.016 143V140.48H299.717V143H298.879V137.24H299.717V139.701H303.016V137.24H303.859V143H303.016Z" fill="#A9A9BD"/>
<path d="M367.098 143H366.201V136.221L361.039 143H360.26V134.598H361.162V141.383L366.318 134.598H367.098V143ZM376.273 137.996C376.84 138.578 377.123 139.285 377.123 140.117C377.123 140.949 376.838 141.658 376.268 142.244C375.701 142.826 375.027 143.117 374.246 143.117C373.512 143.117 372.869 142.861 372.318 142.35C371.771 141.838 371.453 141.215 371.363 140.48H370.104V143H369.266V137.24H370.104V139.701H371.363C371.461 138.998 371.781 138.393 372.324 137.885C372.867 137.373 373.508 137.117 374.246 137.117C375.031 137.117 375.707 137.41 376.273 137.996ZM372.805 138.547C372.402 138.973 372.201 139.498 372.201 140.123C372.201 140.744 372.402 141.27 372.805 141.699C373.211 142.125 373.689 142.338 374.24 142.338C374.795 142.338 375.273 142.125 375.676 141.699C376.082 141.27 376.285 140.744 376.285 140.123C376.285 139.498 376.082 138.973 375.676 138.547C375.273 138.117 374.795 137.902 374.24 137.902C373.689 137.902 373.211 138.117 372.805 138.547ZM379.227 137.24H383.428V143H382.584V138.02H380.064V138.922C380.064 139.77 380.021 140.477 379.936 141.043C379.854 141.605 379.729 142.035 379.561 142.332C379.393 142.625 379.207 142.83 379.004 142.947C378.801 143.061 378.555 143.117 378.266 143.117C378.168 143.117 378.068 143.107 377.967 143.088C377.869 143.068 377.797 143.047 377.75 143.023L377.668 143V142.162C377.828 142.24 377.988 142.279 378.148 142.279C378.395 142.279 378.588 142.209 378.729 142.068C378.869 141.928 378.986 141.604 379.08 141.096C379.178 140.588 379.227 139.863 379.227 138.922V137.24Z" fill="#A9A9BD"/>
</svg>
