<svg width="133" height="28" viewBox="0 0 133 28" fill="none" xmlns="http://www.w3.org/2000/svg">
<g clip-path="url(#clip0_4685_67615)">
<path fill-rule="evenodd" clip-rule="evenodd" d="M28 0H0V28H28V0ZM18.8979 22.414H15.973V7.88624H14.6677C12.2746 7.88624 11.0176 9.09488 11.0176 10.8837C11.0176 12.9142 11.8878 13.8569 13.6766 15.0655L15.1511 16.0566L10.8968 22.414H7.73013L11.5494 16.7334C9.3497 15.1622 8.1169 13.6393 8.1169 11.0529C8.1169 7.81373 10.365 5.61401 14.6435 5.61401H18.8979V22.414Z" fill="black"/>
</g>
<g clip-path="url(#clip1_4685_67615)">
<path d="M44.0429 14.0662L53.8781 24.1376L53.6775 24.3204L53.5928 24.4007C50.8388 26.8572 47.2302 28.1339 43.5442 27.9557C39.8581 27.7776 36.3895 26.159 33.8852 23.4483C31.381 20.7377 30.0414 17.152 30.1551 13.4634C30.2688 9.77483 31.8266 6.27842 34.4931 3.72719C37.2346 1.21836 40.8541 -0.109357 44.5676 0.0316728C48.2811 0.172702 51.7895 1.77112 54.3329 4.48065L44.0429 14.0662Z" fill="#01B94F"/>
<path d="M34.5025 3.7245C37.2436 1.21786 40.8617 -0.108106 44.5734 0.0337527C48.2851 0.175612 51.7915 1.77388 54.3333 4.48242C54.3333 4.48242 46.1522 12.1419 45.9872 12.2757C45.9872 12.2757 44.1548 14.0011 44.1682 14.0278C44.1816 14.0546 53.8607 24.0993 53.8607 24.0993L53.6646 24.2865L53.5798 24.3668C47.8018 29.4493 38.9475 29.2175 33.7178 23.5643C31.2063 20.8219 29.8797 17.1986 30.0267 13.4829C30.1736 9.76719 31.7823 6.25994 34.5025 3.7245Z" fill="url(#paint0_radial_4685_67615)"/>
<path d="M34.5077 3.71483C37.251 1.2115 40.8694 -0.111452 44.5804 0.03205C48.2914 0.175552 51.7968 1.77397 54.3386 4.48167C54.3386 4.48167 46.3759 11.9717 46.0504 12.2348C46.0504 12.2348 44.2671 13.9379 44.2983 13.9914C44.3652 14.1519 53.8481 24.054 53.8481 24.054L53.652 24.2412L53.5673 24.3215C47.8026 29.3951 38.9438 29.1454 33.732 23.51C31.2243 20.7752 29.8987 17.1603 30.044 13.4527C30.1893 9.74506 31.7937 6.245 34.5077 3.71483Z" fill="url(#paint1_radial_4685_67615)"/>
<path d="M34.5153 3.71034C37.2587 1.2103 40.8755 -0.110181 44.5843 0.0341358C48.2932 0.178453 51.7964 1.77599 54.3373 4.48164C54.3373 4.48164 46.602 11.7978 46.1026 12.1946C46.1026 12.1946 44.3817 13.871 44.4129 13.9512C44.5155 14.192 53.829 24.0138 53.829 24.0138L53.6284 24.2011L53.5437 24.2768C47.7968 29.3371 38.9425 29.0785 33.7396 23.4565C31.2359 20.7294 29.9124 17.1228 30.0577 13.4235C30.203 9.7243 31.8054 6.23265 34.5153 3.71034Z" fill="url(#paint2_radial_4685_67615)"/>
<path d="M34.5202 3.7061C37.2639 1.20798 40.8801 -0.110877 44.5879 0.0342645C48.2956 0.179406 51.7976 1.77691 54.3377 4.48186C54.3377 4.48186 46.8253 11.6153 46.161 12.1547C46.161 12.1547 44.4936 13.8088 44.5382 13.9158C44.6719 14.2368 53.8116 23.9739 53.8116 23.9739L53.6154 24.1567C53.6154 24.1567 53.5307 24.2325 53.5307 24.237C47.7972 29.2794 38.9429 29.003 33.7533 23.4032C31.2537 20.6844 29.9314 17.087 30.075 13.3965C30.2187 9.70608 31.8168 6.22237 34.5202 3.7061Z" fill="url(#paint3_radial_4685_67615)"/>
<path d="M34.5298 3.69762C37.2742 1.20335 40.8891 -0.112267 44.5947 0.0345244C48.3004 0.181315 51.7998 1.77875 54.3384 4.48229C54.3384 4.48229 47.0534 11.4552 46.2197 12.115C46.2197 12.115 44.6057 13.7423 44.6592 13.8761C44.8287 14.2773 53.7989 23.9297 53.7945 23.9342L53.5983 24.117L53.5136 24.1972C47.7935 29.2174 38.9436 28.9365 33.7674 23.3501C31.2721 20.6383 29.9516 17.049 30.0945 13.3666C30.2373 9.68419 31.8319 6.208 34.5298 3.69762Z" fill="url(#paint4_radial_4685_67615)"/>
<path d="M34.5332 3.69338C37.278 1.20103 40.8922 -0.11296 44.5968 0.0346556C48.3013 0.182271 51.7995 1.77967 54.3373 4.48251C54.3373 4.48251 47.2752 11.286 46.2766 12.0618C46.2766 12.0618 44.7161 13.6623 44.783 13.8228C44.9836 14.3043 53.78 23.872 53.78 23.872L53.5838 24.0994L53.4991 24.1752C47.7879 29.1596 38.9425 28.8698 33.7753 23.2969C31.2845 20.5928 29.966 17.0123 30.108 13.3387C30.2501 9.66503 31.8411 6.19711 34.5332 3.69338Z" fill="url(#paint5_radial_4685_67615)"/>
<path d="M34.5423 3.68719C37.2874 1.19676 40.901 -0.115605 44.6045 0.0328345C48.308 0.181274 51.805 1.77864 54.342 4.48078C54.342 4.48078 47.5028 11.1148 46.3392 12.06C46.3392 12.06 44.8278 13.6338 44.9036 13.8211C45.1577 14.3605 53.7668 23.848 53.7624 23.848L53.5662 24.0308L53.4815 24.111C47.7882 29.0999 38.9427 28.7968 33.7888 23.2416C31.3016 20.5458 29.9843 16.974 30.1255 13.3087C30.2668 9.64349 31.855 6.18365 34.5423 3.68719Z" fill="url(#paint6_radial_4685_67615)"/>
<path d="M34.547 3.67895C37.2931 1.19101 40.9063 -0.118956 44.6088 0.0311427C48.3112 0.181241 51.8066 1.7794 54.3422 4.48146C54.3422 4.48146 47.726 10.9416 46.3974 11.9983C46.3974 11.9983 44.9395 13.5498 45.0287 13.7816C45.2962 14.4236 53.7493 23.8264 53.7448 23.8264C53.7403 23.8264 53.562 24.0002 53.5486 24.0091L53.4639 24.0849C47.7839 29.0427 38.9385 28.7306 33.798 23.2066C31.3085 20.5175 29.9888 16.9497 30.1293 13.2877C30.2698 9.62578 31.8588 6.16953 34.547 3.67895Z" fill="url(#paint7_radial_4685_67615)"/>
<path d="M34.5561 3.67449C37.3023 1.18983 40.914 -0.117677 44.6142 0.0332356C48.3145 0.184148 51.8077 1.78142 54.3424 4.48146C54.3424 4.48146 47.9536 10.7722 46.4555 11.9582C46.4555 11.9582 45.0512 13.4829 45.1537 13.7415C45.4524 14.4638 53.7316 23.7818 53.7316 23.7862L53.5354 23.969L53.4507 24.0448C47.7841 29.0025 38.9387 28.6771 33.8339 23.1531C31.3472 20.4741 30.0264 16.917 30.1618 13.2643C30.2973 9.61151 31.8779 6.16207 34.5561 3.67449Z" fill="url(#paint8_radial_4685_67615)"/>
<path d="M34.56 3.67027C37.3065 1.18752 40.9175 -0.118366 44.6167 0.0333709C48.3159 0.185108 51.8079 1.78235 54.3418 4.48169C54.3418 4.48169 48.1759 10.5986 46.4951 11.9183C46.4951 11.9183 45.1575 13.4207 45.2556 13.7016C45.6034 14.4907 53.7176 23.724 53.7132 23.7285L53.517 23.9068C53.517 23.9068 53.4412 23.9782 53.4323 23.9871C47.7791 28.927 38.9381 28.5881 33.8154 23.0954C32.5888 21.7711 31.635 20.2181 31.0085 18.5252C30.3821 16.8322 30.0952 15.0324 30.1644 13.2286C30.2335 11.4248 30.6573 9.65229 31.4115 8.01226C32.1657 6.37222 33.2355 4.89681 34.56 3.67027Z" fill="url(#paint9_radial_4685_67615)"/>
<path d="M34.5686 3.66182C37.3158 1.18291 40.9256 -0.11974 44.6226 0.0336442C48.3197 0.187029 51.8092 1.78422 54.3415 4.48216C54.3415 4.48216 48.403 10.4296 46.5706 11.8786C46.5706 11.8786 45.2732 13.3588 45.398 13.662C45.7636 14.5536 53.6995 23.6978 53.6995 23.7022L53.5034 23.8806L53.4187 23.9564C47.7744 28.8695 38.9378 28.5217 33.833 23.0335C31.3622 20.3669 30.0516 16.8281 30.1896 13.1953C30.3275 9.56258 31.9027 6.13336 34.5686 3.66182Z" fill="url(#paint10_radial_4685_67615)"/>
<path d="M34.5741 3.65604C37.3223 1.17878 40.9322 -0.122377 44.6289 0.0318272C48.3257 0.186031 51.8146 1.78331 54.347 4.48084C54.347 4.48084 48.6269 10.2767 46.6295 11.8416C46.6295 11.8416 45.3901 13.2906 45.5194 13.625C45.9207 14.5746 53.6872 23.6519 53.6827 23.6519L53.4865 23.8347L53.4018 23.9105C47.7753 28.8147 38.9388 28.458 33.8474 22.9876C32.6246 21.6711 31.6733 20.1265 31.048 18.4422C30.4226 16.7578 30.1355 14.9666 30.203 13.1712C30.2705 11.3757 30.6913 9.61115 31.4413 7.97846C32.1914 6.34577 33.2559 4.87696 34.5741 3.65604Z" fill="url(#paint11_radial_4685_67615)"/>
<path d="M34.5836 3.6516C37.3319 1.17761 40.9402 -0.121093 44.6347 0.0339246C48.3293 0.188942 51.8161 1.78534 54.3476 4.48086C54.3476 4.48086 48.8548 10.085 46.6881 11.8015C46.6881 11.8015 45.5021 13.2282 45.6448 13.5849C46.0906 14.6281 53.6699 23.6118 53.6699 23.6162L53.4737 23.799C53.4737 23.799 53.3979 23.8659 53.3935 23.8748C47.7759 28.779 38.9439 28.3911 33.8613 22.9386C28.7787 17.486 29.0329 8.68511 34.5836 3.6516Z" fill="url(#paint12_radial_4685_67615)"/>
<path d="M34.5878 3.64339C37.3371 1.17188 40.945 -0.124429 44.6386 0.0322458C48.3321 0.18892 51.8173 1.78611 54.3474 4.48156C54.3474 4.48156 49.0776 9.90741 46.7681 11.7532C46.7681 11.7532 45.6312 13.1531 45.7873 13.5365C46.2554 14.66 53.6697 23.559 53.6697 23.5634L53.4735 23.7418L53.3888 23.8175C47.7668 28.6905 38.9169 28.3116 33.87 22.8724C28.8232 17.4331 29.0505 8.66352 34.5878 3.64339Z" fill="url(#paint13_radial_4685_67615)"/>
<path d="M34.5968 3.63896C37.3461 1.17072 40.9525 -0.123142 44.6439 0.0343458C48.3352 0.191833 51.8183 1.78815 54.3474 4.48159C54.3474 4.48159 49.305 9.74247 46.8083 11.722C46.8083 11.722 45.7249 13.0996 45.8899 13.5053C46.3937 14.7046 53.6296 23.5189 53.6296 23.5233L53.4334 23.7017L53.3487 23.7774C47.7668 28.6326 38.917 28.2403 33.879 22.8189C28.841 17.3975 29.0684 8.64126 34.5968 3.63896Z" fill="url(#paint14_radial_4685_67615)"/>
<path d="M34.6012 3.63475C37.3509 1.16842 40.9566 -0.123823 44.6469 0.0344879C48.3372 0.192799 51.819 1.78909 54.3474 4.48184C54.3474 4.48184 49.5278 9.5733 46.8662 11.6821C46.8662 11.6821 45.8363 13.0196 46.0146 13.4655C46.5496 14.7361 53.6296 23.479 53.6296 23.4834L53.4378 23.6618L53.3531 23.7376C47.7623 28.5571 38.9169 28.1737 33.8923 22.7612C28.8677 17.3487 29.0817 8.62367 34.6012 3.63475Z" fill="url(#paint15_radial_4685_67615)"/>
<path d="M34.6087 3.62497C37.3603 1.16327 40.9652 -0.125161 44.6538 0.034777C48.3423 0.194715 51.8222 1.79035 54.3504 4.48098C54.3504 4.48098 49.7538 9.3852 46.9406 11.6411C46.9406 11.6411 45.9642 12.9787 46.1514 13.4245C46.7043 14.7888 53.6281 23.4336 53.6014 23.438L53.4052 23.6163C53.3791 23.6439 53.3508 23.6693 53.3205 23.6921C47.7609 28.5161 38.9155 28.1104 33.9043 22.7113C28.8931 17.3122 29.1071 8.60052 34.6087 3.62497Z" fill="url(#paint16_radial_4685_67615)"/>
<path d="M34.6142 3.6218C37.3691 1.1638 40.9762 -0.119004 44.6644 0.0476221C48.3527 0.214248 51.8294 1.81708 54.3514 4.51347C54.3514 4.51347 49.9778 9.23043 46.9817 11.6157C46.9817 11.6157 46.0589 12.9175 46.2595 13.399C46.8614 14.848 53.5891 23.4125 53.5846 23.417C53.5801 23.4215 53.4196 23.573 53.3884 23.5953L53.3082 23.6711C47.7575 28.4594 38.9165 28.0314 33.9142 22.6591C28.9119 17.2867 29.1081 8.57951 34.6142 3.6218Z" fill="url(#paint17_radial_4685_67615)"/>
<path d="M34.6233 3.61727C37.3772 1.1609 40.9826 -0.120942 44.669 0.0456774C48.3555 0.212296 51.8306 1.81416 54.3516 4.50895C54.3516 4.50895 50.2053 9.06987 47.0399 11.5799C47.0399 11.5799 46.1705 12.855 46.3801 13.3633C47.0176 14.8925 53.5759 23.3723 53.567 23.3768L53.3752 23.5551L53.2905 23.6309C47.7532 28.4014 38.9167 27.9645 33.9278 22.6055C28.9389 17.2465 29.1306 8.55715 34.6233 3.61727Z" fill="url(#paint18_radial_4685_67615)"/>
<path d="M34.6263 3.58991C37.3805 1.13596 40.9847 -0.144342 44.6697 0.0222509C48.3547 0.188844 51.8287 1.78914 54.3502 4.48158C54.3502 4.48158 50.4268 8.87309 47.1009 11.5124C47.1009 11.5124 46.2805 12.7608 46.5034 13.2958C47.1722 14.9053 53.5566 23.3049 53.5521 23.3093L53.356 23.4877L53.2713 23.559C47.7518 28.3428 38.9153 27.8925 33.9353 22.5559C28.9553 17.2192 29.147 8.53425 34.6263 3.58991Z" fill="url(#paint19_radial_4685_67615)"/>
<path d="M34.6367 3.58929C37.3898 1.13697 40.9923 -0.142373 44.6756 0.0242125C48.3588 0.190798 51.8311 1.79013 54.3516 4.48097C52.1351 6.99421 49.7311 9.33563 47.1603 11.4851C47.1603 11.4851 46.3934 12.7111 46.6297 13.2684C47.3297 14.9582 53.5402 23.2686 53.5357 23.2775L53.344 23.4514L53.2593 23.5272C47.7488 28.2843 38.9167 27.825 33.9501 22.5017C28.9835 17.1784 29.1618 8.49351 34.6367 3.58929Z" fill="url(#paint20_radial_4685_67615)"/>
<path d="M34.6397 3.58948C37.3934 1.13824 40.9956 -0.1404 44.6785 0.0261702C48.3614 0.192741 51.8335 1.79134 54.3547 4.48116C52.1692 6.98753 49.7835 9.31206 47.2213 11.4318C47.2213 11.4318 46.5124 12.6311 46.7754 13.2151C47.511 14.9985 53.5522 23.2153 53.5432 23.2197L53.3515 23.3981L53.2668 23.4738C47.7473 28.222 38.9153 27.7539 33.9576 22.4484C28.9999 17.1429 29.1782 8.4937 34.6397 3.58948Z" fill="url(#paint21_radial_4685_67615)"/>
<path d="M34.6501 3.58926C37.4037 1.14178 41.0038 -0.134486 44.6842 0.0320471C48.3646 0.19858 51.8347 1.79477 54.3561 4.48094C52.205 6.98911 49.8357 9.30166 47.2762 11.3914C47.2762 11.3914 46.6208 12.5684 46.8749 13.1748C47.6418 15.0428 53.509 23.2061 53.5045 23.2061C53.5001 23.2061 53.3485 23.3533 53.3084 23.3845L53.2281 23.4558C47.7443 28.1639 38.9167 27.6645 33.9724 22.3947C29.028 17.1249 29.193 8.49348 34.6501 3.58926Z" fill="url(#paint22_radial_4685_67615)"/>
<path d="M34.6548 3.58905C37.4083 1.14292 41.0074 -0.132515 44.6867 0.0340068C48.366 0.200529 51.8352 1.79587 54.3564 4.48073C52.2401 6.99346 49.8888 9.29849 47.3345 11.3645C47.3345 11.3645 46.7326 12.5147 46.9956 13.1478C47.8026 15.0783 53.496 23.1435 53.487 23.148L53.2953 23.3218L53.2106 23.3976C47.7402 28.1101 38.9171 27.6153 33.9861 22.341C29.0551 17.0667 29.2112 8.44869 34.6548 3.58905Z" fill="url(#paint23_radial_4685_67615)"/>
<path d="M34.6591 3.5908C37.4123 1.14602 41.0104 -0.128592 44.6887 0.0379195C48.3669 0.204431 51.8352 1.79893 54.3562 4.48248C52.276 6.99961 49.9408 9.29455 47.3878 11.3305C47.3878 11.3305 46.8394 12.4541 47.1158 13.1139C47.954 15.1246 53.4735 23.1007 53.469 23.1096L53.2728 23.2835L53.1881 23.3593C47.74 28.0495 38.9168 27.5457 34.0126 22.2892C29.1084 17.0328 29.2288 8.42814 34.6591 3.5908Z" fill="url(#paint24_radial_4685_67615)"/>
<path d="M34.6681 3.59039C37.4208 1.1483 41.017 -0.12465 44.6931 0.0418389C48.3692 0.208328 51.8356 1.80114 54.3563 4.48207C52.3151 7.00006 50.0003 9.28339 47.4547 11.29C47.4547 11.29 46.9554 12.3912 47.2452 13.0734C48.1368 15.1643 53.4869 23.0601 53.4557 23.069L53.264 23.2429L53.1793 23.3142C47.7356 27.9911 38.9169 27.4739 34.0127 22.2353C29.1085 16.9967 29.2422 8.40544 34.6681 3.59039Z" fill="url(#paint25_radial_4685_67615)"/>
<path d="M34.6715 3.59039C37.4244 1.15071 41.0194 -0.120707 44.6941 0.0457562C48.3688 0.212219 51.8341 1.80347 54.3552 4.48207C52.355 7.00553 50.0572 9.27795 47.5116 11.2499C47.5116 11.2499 47.0658 12.3244 47.3645 13.0332C48.2561 15.2045 53.4457 23.0156 53.4368 23.02C53.4279 23.0245 53.2897 23.1582 53.2451 23.1939L53.1604 23.2697C47.7345 27.9332 38.9158 27.4071 34.0116 22.1818C29.1074 16.9566 29.259 8.38315 34.6715 3.59039Z" fill="url(#paint26_radial_4685_67615)"/>
<path d="M34.6804 3.56242C37.4365 1.12746 41.0326 -0.138475 44.7062 0.0329731C48.3799 0.204422 51.8424 1.79977 54.3597 4.48085C54.3597 4.48085 52.2286 7.51254 47.5696 11.2085C47.5696 11.2085 47.1773 12.2607 47.4894 12.9919C48.4256 15.2211 53.4279 22.9742 53.4235 22.9787L53.2273 23.1525L53.147 23.2283C47.7301 27.874 38.9159 27.3345 34.0117 22.1271C29.1075 16.9197 29.2724 8.35963 34.6804 3.56242Z" fill="url(#paint27_radial_4685_67615)"/>
<path d="M34.6845 3.55448C37.442 1.12305 41.0375 -0.139802 44.7097 0.0332849C48.382 0.206372 51.8428 1.80181 54.3593 4.48183C54.3593 4.48183 52.4556 7.32627 47.6272 11.1694C47.4473 11.7502 47.4473 12.3719 47.6272 12.9528C48.5991 15.2845 53.4231 22.9261 53.4231 22.9351L53.2313 23.1089L53.1466 23.1803C47.7252 27.817 38.9155 27.2686 34.0425 22.0791C29.1695 16.8895 29.2899 8.34278 34.6845 3.55448Z" fill="url(#paint28_radial_4685_67615)"/>
<path d="M34.6934 3.5497C37.45 1.11939 41.0444 -0.142441 44.7152 0.0314873C48.386 0.205416 51.8449 1.80144 54.3594 4.4815C54.3594 4.4815 52.6785 7.15653 47.6718 11.1111C47.5143 11.6977 47.5313 12.3174 47.7208 12.8945C48.724 15.3377 53.3963 22.8991 53.3874 22.908L53.1957 23.0819L53.1155 23.1532C47.7253 27.7587 38.9155 27.2192 34.0514 22.0252C29.1873 16.8312 29.3077 8.32016 34.6934 3.5497Z" fill="url(#paint29_radial_4685_67615)"/>
<path d="M34.6981 3.54553C37.4549 1.11712 41.0487 -0.143103 44.7184 0.0316464C48.3881 0.206396 51.8458 1.8024 54.3595 4.48179C54.3595 4.48179 52.9061 7.00077 47.7433 11.0936C47.6191 11.6872 47.6576 12.3034 47.8547 12.8769C48.8935 15.3691 53.3831 22.8458 53.3742 22.8548L53.1825 23.0242L53.0978 23.1C47.721 27.701 38.9157 27.1259 34.065 21.972C29.1385 16.7468 29.3213 8.29816 34.6981 3.54553Z" fill="url(#paint30_radial_4685_67615)"/>
<path d="M34.7084 3.53741C37.4664 1.11388 41.0586 -0.14245 44.7259 0.0339254C48.3931 0.210301 51.8482 1.80556 54.3609 4.48259C54.3609 4.48259 53.1304 6.81432 47.8026 11.0364C47.7107 11.6364 47.772 12.2499 47.981 12.8198C49.051 15.3922 53.3667 22.7887 53.3578 22.7931L53.166 22.967L53.0813 23.0384C47.7313 27.6082 38.926 27.0509 34.0753 21.8881C29.2246 16.7253 29.3405 8.27667 34.7084 3.53741Z" fill="url(#paint31_radial_4685_67615)"/>
<path d="M34.7118 3.53171C37.4709 1.10979 41.0632 -0.14506 44.7301 0.0321318C48.3971 0.209324 51.8516 1.80469 54.3643 4.48134C54.3643 4.48134 53.3567 6.6392 47.864 10.995C47.8039 11.6001 47.8863 12.2109 48.1048 12.7784C49.206 15.4668 53.3478 22.7607 53.3389 22.783L53.1472 22.9569L53.0669 23.0282C47.7169 27.5802 38.9161 26.9872 34.0876 21.869C29.1834 16.6705 29.3573 8.25313 34.7118 3.53171Z" fill="url(#paint32_radial_4685_67615)"/>
<path d="M34.7206 3.52714C37.4793 1.10741 41.0702 -0.145721 44.7354 0.0322967C48.4005 0.210314 51.8531 1.80555 54.3642 4.48123C54.3642 4.48123 53.5796 6.4875 47.9219 10.9726C47.8966 11.5818 47.9999 12.1894 48.2251 12.756C49.3619 15.5068 53.3344 22.7338 53.3254 22.7606L53.1337 22.93L53.049 23.0013C47.7123 27.5221 38.916 26.9203 34.0965 21.811C29.2056 16.6303 29.3706 8.23073 34.7206 3.52714Z" fill="url(#paint33_radial_4685_67615)"/>
<path d="M34.7252 3.51923C37.4852 1.10303 41.0756 -0.147032 44.7394 0.0326221C48.4031 0.212276 51.854 1.80761 54.3644 4.48224C54.3644 4.48224 53.8071 6.31464 47.98 10.9335C47.9896 11.5532 48.1151 12.1656 48.35 12.7392C49.5226 15.5524 53.3166 22.6947 53.3077 22.7036L53.116 22.873L53.0358 22.9444C47.7125 27.4652 38.9161 26.8499 34.1099 21.7585C29.228 16.5957 29.3885 8.20945 34.7252 3.51923Z" fill="url(#paint34_radial_4685_67615)"/>
<path d="M34.7334 3.51412C37.4949 1.10741 41.0821 -0.134674 44.7406 0.0490817C48.3991 0.232837 51.8438 1.82811 54.3503 4.49942C54.3503 4.49942 54.0159 6.14456 48.0238 10.8927C48.0756 11.5145 48.2261 12.124 48.4697 12.6984C49.6779 15.5963 53.3025 22.6539 53.2936 22.6628L53.1019 22.8323C53.0717 22.8536 53.0434 22.8775 53.0172 22.9036C47.7073 27.4066 38.9154 26.7735 34.1226 21.7043C29.2496 16.5549 29.4012 8.19095 34.7334 3.51412Z" fill="url(#paint35_radial_4685_67615)"/>
<path d="M34.7386 3.50994C37.5002 1.10273 41.088 -0.139273 44.7468 0.0453313C48.4057 0.229936 51.8502 1.82675 54.3555 4.4997C54.3555 4.4997 54.2485 5.97542 48.087 10.8529C48.1745 11.4753 48.3424 12.0837 48.5863 12.663C49.8347 15.6278 53.2855 22.6096 53.2766 22.6186L53.0849 22.788C53.0581 22.788 53.0269 22.8415 53.0001 22.8593C47.7036 27.3489 38.9161 26.7113 34.1323 21.6511C29.2726 16.5195 29.4198 8.16895 34.7386 3.50994Z" fill="url(#paint36_radial_4685_67615)"/>
<path d="M34.7469 3.50052C37.5106 1.09655 41.0986 -0.142521 44.7568 0.0437145C48.415 0.22995 51.8585 1.82699 54.3638 4.4992C54.3638 4.4992 54.4797 5.81888 48.1533 10.8167C48.2828 11.4361 48.474 12.041 48.7239 12.6224C49.9946 15.6808 53.2759 22.569 53.2626 22.5779C53.2492 22.5868 53.1333 22.6983 53.0709 22.7473L52.9906 22.8187C47.7074 27.2994 38.9155 26.6395 34.1451 21.5971C29.2899 16.4789 29.437 8.14615 34.7469 3.50052Z" fill="url(#paint37_radial_4685_67615)"/>
<path d="M34.7518 3.49629C37.5161 1.09238 41.105 -0.145833 44.7635 0.0420835C48.4221 0.23 51.8652 1.8294 54.3686 4.50389C54.3686 4.50389 54.7075 5.63186 48.2161 10.7768C48.3828 11.3937 48.5913 11.9985 48.8403 12.5869C50.1466 15.7078 53.2541 22.5291 53.2451 22.538L53.0534 22.7075L52.9687 22.7788C47.7034 27.2193 38.9159 26.5684 34.1544 21.5483C29.3126 16.439 29.4508 8.12409 34.7518 3.49629Z" fill="url(#paint38_radial_4685_67615)"/>
<path d="M34.7604 3.49234C37.5252 1.08899 41.1144 -0.148453 44.773 0.0402954C48.4315 0.229044 51.8743 1.82927 54.3772 4.50439C54.3772 4.50439 54.9301 5.45848 48.2782 10.7238C48.2782 10.7238 48.5234 11.4728 48.9692 12.5339C50.3067 15.7529 53.2403 22.4761 53.2314 22.485L53.0397 22.6544L52.9595 22.7213C47.6986 27.1752 38.9156 26.502 34.1674 21.4953C29.3345 16.3993 29.4683 8.1023 34.7604 3.49234Z" fill="url(#paint39_radial_4685_67615)"/>
<path d="M53.2093 22.4578C48.0019 27.1391 39.0005 26.5194 34.1765 21.4235C29.3525 16.3276 29.4818 8.04835 34.765 3.46513C37.5315 1.06396 41.1211 -0.171246 44.7793 0.0191492C48.4376 0.209545 51.8796 1.81071 54.3819 4.4861C54.3819 4.4861 55.171 5.27078 48.3452 10.6788C48.3318 10.6966 53.2271 22.4445 53.2093 22.4578Z" fill="url(#paint40_radial_4685_67615)"/>
<path d="M48.1358 10.8477C46.0003 12.5998 43.3743 14.664 40.3203 16.9779C42.589 19.4314 45.2276 21.5149 48.1403 23.1528C50.6415 24.4903 52.5987 24.74 53.5572 23.8929C54.5158 23.0458 54.3999 21.093 53.2853 18.5428C51.9656 15.7334 50.2296 13.1391 48.1358 10.8477Z" fill="url(#paint41_linear_4685_67615)"/>
<path d="M48.3284 10.6738L47.2584 11.5655C49.2176 13.7192 50.8463 16.1517 52.0912 18.7836C53.1835 21.2981 53.1568 22.5599 52.8046 22.8764C52.4524 23.193 50.9321 23.2732 48.5023 21.9847C45.8106 20.4583 43.3762 18.5174 41.2886 16.2334L40.0938 17.1251L40.3746 17.3971C45.4349 22.6267 50.9098 25.6049 53.3173 24.5216C53.3886 24.4859 53.46 24.4502 53.5268 24.4101H53.5536C53.6467 24.3523 53.7347 24.2867 53.8166 24.2139C53.9034 24.1354 53.9825 24.0488 54.0529 23.9553C55.6267 21.8911 53.2371 16.3315 48.4755 10.8834L48.3284 10.6738Z" fill="#84EEB1"/>
</g>
<path d="M69.1025 24.7978C66.514 24.7978 64.4716 23.8575 62.9751 21.9768C61.4787 20.0759 60.7305 17.4065 60.7305 13.9688C60.7305 10.6118 61.4686 7.96273 62.9448 6.02139C64.4413 4.08005 66.5848 3.10938 69.3755 3.10938C70.3462 3.10938 71.2157 3.25093 71.9842 3.53404C72.7526 3.79693 73.3795 4.10027 73.8649 4.44405V7.38639C73.3189 7.04261 72.6717 6.71906 71.9235 6.41572C71.1753 6.11239 70.3866 5.96072 69.5575 5.96072C67.7779 5.96072 66.4837 6.61795 65.6748 7.93239C64.8659 9.24684 64.4615 11.259 64.4615 13.9688C64.4615 16.5976 64.8659 18.5895 65.6748 19.9444C66.4837 21.2791 67.7173 21.9464 69.3755 21.9464C70.3462 21.9464 71.1854 21.8049 71.8932 21.5218C72.601 21.2184 73.2582 20.8443 73.8649 20.3994V23.3418C73.3997 23.6653 72.7729 23.9889 71.9842 24.3125C71.1955 24.636 70.235 24.7978 69.1025 24.7978Z" fill="black"/>
<path d="M76.1484 9.23673H88.0391V24.4945H84.4294V12.0881H79.7581V24.4945H76.1484V9.23673Z" fill="black"/>
<path d="M89.8648 21.3701C89.8648 21.3701 89.9356 21.4207 90.0771 21.5218C90.2187 21.6027 90.4209 21.6431 90.6838 21.6431C91.2703 21.6431 91.6545 21.3398 91.8365 20.7331C92.0185 20.1264 92.1398 19.0142 92.2005 17.3964L92.5038 9.23673H102.848V24.4945H99.2379V12.0881H95.5675L95.3552 17.5481C95.2743 20.0759 94.9608 21.9161 94.4148 23.0688C93.8688 24.2215 92.8274 24.7978 91.2905 24.7978C90.8658 24.7978 90.522 24.7472 90.2591 24.6461C89.9963 24.545 89.8648 24.4945 89.8648 24.4945V21.3701Z" fill="black"/>
<path d="M105.889 9.23673H109.408V18.6704L114.989 9.23673H118.114V24.4945H114.595V15.0608L109.014 24.4945H105.889V9.23673Z" fill="black"/>
<path d="M132.338 12.0881H128.091V24.4945H124.482V12.0881H120.235V9.23673H132.338V12.0881Z" fill="black"/>
<defs>
<radialGradient id="paint0_radial_4685_67615" cx="0" cy="0" r="1" gradientUnits="userSpaceOnUse" gradientTransform="translate(47.5961 1.58697) rotate(-2.29061) scale(64.185 47.498)">
<stop stop-color="#03BA50"/>
<stop offset="0.8" stop-color="#01B64E"/>
</radialGradient>
<radialGradient id="paint1_radial_4685_67615" cx="0" cy="0" r="1" gradientUnits="userSpaceOnUse" gradientTransform="translate(47.5904 1.58105) rotate(-2.29061) scale(64.0512 47.3989)">
<stop stop-color="#04BC50"/>
<stop offset="0.8" stop-color="#01B34D"/>
</radialGradient>
<radialGradient id="paint2_radial_4685_67615" cx="0" cy="0" r="1" gradientUnits="userSpaceOnUse" gradientTransform="translate(47.5738 1.59306) rotate(-2.29061) scale(63.9173 47.2999)">
<stop stop-color="#06BD51"/>
<stop offset="0.72" stop-color="#02B24C"/>
<stop offset="0.8" stop-color="#01B04B"/>
</radialGradient>
<radialGradient id="paint3_radial_4685_67615" cx="0" cy="0" r="1" gradientUnits="userSpaceOnUse" gradientTransform="translate(47.5501 1.61343) rotate(-2.29061) scale(63.7835 47.2008)">
<stop stop-color="#08BF52"/>
<stop offset="0.56" stop-color="#04B44D"/>
<stop offset="0.8" stop-color="#01AD4A"/>
</radialGradient>
<radialGradient id="paint4_radial_4685_67615" cx="0" cy="0" r="1" gradientUnits="userSpaceOnUse" gradientTransform="translate(47.5269 1.63321) rotate(-2.29061) scale(63.6496 47.1017)">
<stop stop-color="#0AC053"/>
<stop offset="0.48" stop-color="#05B54E"/>
<stop offset="0.8" stop-color="#01AA49"/>
</radialGradient>
<radialGradient id="paint5_radial_4685_67615" cx="0" cy="0" r="1" gradientUnits="userSpaceOnUse" gradientTransform="translate(47.4977 1.68162) rotate(-1.71836) scale(63.4891 46.9968)">
<stop stop-color="#0BC253"/>
<stop offset="0.42" stop-color="#07B74E"/>
<stop offset="0.8" stop-color="#01A848"/>
</radialGradient>
<radialGradient id="paint6_radial_4685_67615" cx="0" cy="0" r="1" gradientUnits="userSpaceOnUse" gradientTransform="translate(47.461 1.69206) rotate(-1.71836) scale(63.3553 46.8977)">
<stop stop-color="#0DC354"/>
<stop offset="0.37" stop-color="#08B84F"/>
<stop offset="0.8" stop-color="#01A546"/>
</radialGradient>
<radialGradient id="paint7_radial_4685_67615" cx="0" cy="0" r="1" gradientUnits="userSpaceOnUse" gradientTransform="translate(47.9321 1.70518) rotate(-1.71836) scale(63.2214 46.7797)">
<stop stop-color="#0FC555"/>
<stop offset="0.33" stop-color="#0ABA50"/>
<stop offset="0.8" stop-color="#01A245"/>
</radialGradient>
<radialGradient id="paint8_radial_4685_67615" cx="0" cy="0" r="1" gradientUnits="userSpaceOnUse" gradientTransform="translate(47.8853 1.72779) rotate(-1.70136) scale(63.7179 46.6807)">
<stop stop-color="#11C656"/>
<stop offset="0.3" stop-color="#0CBB51"/>
<stop offset="0.8" stop-color="#019F44"/>
</radialGradient>
<radialGradient id="paint9_radial_4685_67615" cx="0" cy="0" r="1" gradientUnits="userSpaceOnUse" gradientTransform="translate(47.869 1.75089) rotate(-1.70135) scale(63.5828 46.5817)">
<stop stop-color="#12C856"/>
<stop offset="0.28" stop-color="#0EBD51"/>
<stop offset="0.77" stop-color="#029E44"/>
<stop offset="0.8" stop-color="#019C43"/>
</radialGradient>
<radialGradient id="paint10_radial_4685_67615" cx="0" cy="0" r="1" gradientUnits="userSpaceOnUse" gradientTransform="translate(47.8531 1.78226) rotate(-1.70135) scale(63.4432 46.4794)">
<stop stop-color="#14C957"/>
<stop offset="0.26" stop-color="#0FBE52"/>
<stop offset="0.72" stop-color="#049F44"/>
<stop offset="0.8" stop-color="#019941"/>
</radialGradient>
<radialGradient id="paint11_radial_4685_67615" cx="0" cy="0" r="1" gradientUnits="userSpaceOnUse" gradientTransform="translate(47.8251 1.81883) rotate(-1.70136) scale(63.308 46.3804)">
<stop stop-color="#16CB58"/>
<stop offset="0.24" stop-color="#11C053"/>
<stop offset="0.66" stop-color="#06A145"/>
<stop offset="0.8" stop-color="#019640"/>
</radialGradient>
<radialGradient id="paint12_radial_4685_67615" cx="0" cy="0" r="1" gradientUnits="userSpaceOnUse" gradientTransform="translate(47.7923 1.86018) rotate(-1.70135) scale(63.1729 46.2814)">
<stop stop-color="#18CC59"/>
<stop offset="0.23" stop-color="#13C154"/>
<stop offset="0.62" stop-color="#07A246"/>
<stop offset="0.8" stop-color="#01933F"/>
</radialGradient>
<radialGradient id="paint13_radial_4685_67615" cx="0" cy="0" r="1" gradientUnits="userSpaceOnUse" gradientTransform="translate(47.7587 1.91024) rotate(-1.70136) scale(63.0332 46.1791)">
<stop stop-color="#19CD59"/>
<stop offset="0.21" stop-color="#15C254"/>
<stop offset="0.59" stop-color="#09A347"/>
<stop offset="0.8" stop-color="#01903E"/>
</radialGradient>
<radialGradient id="paint14_radial_4685_67615" cx="0" cy="0" r="1" gradientUnits="userSpaceOnUse" gradientTransform="translate(47.7164 1.96319) rotate(-1.70135) scale(62.8981 46.0801)">
<stop stop-color="#1BCF5A"/>
<stop offset="0.2" stop-color="#17C455"/>
<stop offset="0.56" stop-color="#0BA547"/>
<stop offset="0.8" stop-color="#018D3C"/>
</radialGradient>
<radialGradient id="paint15_radial_4685_67615" cx="0" cy="0" r="1" gradientUnits="userSpaceOnUse" gradientTransform="translate(47.6697 1.76972) rotate(-1.13442) scale(62.7476 45.98)">
<stop stop-color="#1DD05B"/>
<stop offset="0.19" stop-color="#18C556"/>
<stop offset="0.54" stop-color="#0CA648"/>
<stop offset="0.8" stop-color="#018B3B"/>
</radialGradient>
<radialGradient id="paint16_radial_4685_67615" cx="0" cy="0" r="1" gradientUnits="userSpaceOnUse" gradientTransform="translate(47.6171 1.80907) rotate(-1.13442) scale(62.6079 45.8777)">
<stop stop-color="#1ED25B"/>
<stop offset="0.18" stop-color="#1AC756"/>
<stop offset="0.51" stop-color="#0EA848"/>
<stop offset="0.8" stop-color="#01883A"/>
</radialGradient>
<radialGradient id="paint17_radial_4685_67615" cx="0" cy="0" r="1" gradientUnits="userSpaceOnUse" gradientTransform="translate(47.5671 1.8495) rotate(-1.13442) scale(62.4728 45.7787)">
<stop stop-color="#20D35C"/>
<stop offset="0.18" stop-color="#1BC857"/>
<stop offset="0.49" stop-color="#0FA949"/>
<stop offset="0.8" stop-color="#018539"/>
</radialGradient>
<radialGradient id="paint18_radial_4685_67615" cx="0" cy="0" r="1" gradientUnits="userSpaceOnUse" gradientTransform="translate(47.5073 1.90436) rotate(-1.13442) scale(62.3377 45.6797)">
<stop stop-color="#22D55D"/>
<stop offset="0.17" stop-color="#1DCA58"/>
<stop offset="0.47" stop-color="#11AB4A"/>
<stop offset="0.8" stop-color="#018237"/>
</radialGradient>
<radialGradient id="paint19_radial_4685_67615" cx="0" cy="0" r="1" gradientUnits="userSpaceOnUse" gradientTransform="translate(47.4369 1.95439) rotate(-1.13442) scale(62.1981 45.5774)">
<stop stop-color="#24D65E"/>
<stop offset="0.16" stop-color="#1FCB59"/>
<stop offset="0.45" stop-color="#13AC4B"/>
<stop offset="0.8" stop-color="#017F36"/>
</radialGradient>
<radialGradient id="paint20_radial_4685_67615" cx="0" cy="0" r="1" gradientUnits="userSpaceOnUse" gradientTransform="translate(47.365 2.01566) rotate(-1.13442) scale(62.063 45.4784)">
<stop stop-color="#25D85E"/>
<stop offset="0.15" stop-color="#20CD59"/>
<stop offset="0.43" stop-color="#14AE4B"/>
<stop offset="0.79" stop-color="#017D36"/>
<stop offset="0.8" stop-color="#007C35"/>
</radialGradient>
<radialGradient id="paint21_radial_4685_67615" cx="0" cy="0" r="1" gradientUnits="userSpaceOnUse" gradientTransform="translate(48.713 2.08567) rotate(-1.13442) scale(61.9279 45.3672)">
<stop stop-color="#27D95F"/>
<stop offset="0.15" stop-color="#22CE5A"/>
<stop offset="0.42" stop-color="#16AF4C"/>
<stop offset="0.77" stop-color="#027E36"/>
<stop offset="0.8" stop-color="#007934"/>
</radialGradient>
<radialGradient id="paint22_radial_4685_67615" cx="0" cy="0" r="1" gradientUnits="userSpaceOnUse" gradientTransform="translate(48.2532 2.1575) rotate(-1.1233) scale(62.3998 45.2651)">
<stop stop-color="#29DB60"/>
<stop offset="0.14" stop-color="#24D05B"/>
<stop offset="0.4" stop-color="#18B14D"/>
<stop offset="0.74" stop-color="#048037"/>
<stop offset="0.8" stop-color="#007632"/>
</radialGradient>
<radialGradient id="paint23_radial_4685_67615" cx="0" cy="0" r="1" gradientUnits="userSpaceOnUse" gradientTransform="translate(48.1991 2.23736) rotate(-1.1233) scale(62.2633 45.1661)">
<stop stop-color="#2BDC61"/>
<stop offset="0.14" stop-color="#26D15C"/>
<stop offset="0.39" stop-color="#1AB24E"/>
<stop offset="0.71" stop-color="#068138"/>
<stop offset="0.8" stop-color="#007331"/>
</radialGradient>
<radialGradient id="paint24_radial_4685_67615" cx="0" cy="0" r="1" gradientUnits="userSpaceOnUse" gradientTransform="translate(48.1444 2.32703) rotate(-1.1233) scale(62.1224 45.0638)">
<stop stop-color="#2CDE61"/>
<stop offset="0.13" stop-color="#27D35C"/>
<stop offset="0.37" stop-color="#1BB44E"/>
<stop offset="0.69" stop-color="#088339"/>
<stop offset="0.8" stop-color="#007030"/>
</radialGradient>
<radialGradient id="paint25_radial_4685_67615" cx="0" cy="0" r="1" gradientUnits="userSpaceOnUse" gradientTransform="translate(48.0854 1.88025) rotate(-0.561705) scale(61.977 44.9653)">
<stop stop-color="#2EDF62"/>
<stop offset="0.13" stop-color="#29D45D"/>
<stop offset="0.37" stop-color="#1DB54F"/>
<stop offset="0.67" stop-color="#098439"/>
<stop offset="0.8" stop-color="#006E2F"/>
</radialGradient>
<radialGradient id="paint26_radial_4685_67615" cx="0" cy="0" r="1" gradientUnits="userSpaceOnUse" gradientTransform="translate(48.0162 1.95002) rotate(-0.561705) scale(61.8405 44.8663)">
<stop stop-color="#30E163"/>
<stop offset="0.13" stop-color="#2BD65E"/>
<stop offset="0.35" stop-color="#1FB750"/>
<stop offset="0.65" stop-color="#0B8639"/>
<stop offset="0.8" stop-color="#006B2D"/>
</radialGradient>
<radialGradient id="paint27_radial_4685_67615" cx="0" cy="0" r="1" gradientUnits="userSpaceOnUse" gradientTransform="translate(47.948 2.02638) rotate(-0.561706) scale(61.6995 44.764)">
<stop stop-color="#31E263"/>
<stop offset="0.12" stop-color="#2CD75E"/>
<stop offset="0.34" stop-color="#20B850"/>
<stop offset="0.63" stop-color="#0D873A"/>
<stop offset="0.8" stop-color="#00682C"/>
</radialGradient>
<radialGradient id="paint28_radial_4685_67615" cx="0" cy="0" r="1" gradientUnits="userSpaceOnUse" gradientTransform="translate(47.8703 2.10832) rotate(-0.561706) scale(61.5631 44.6651)">
<stop stop-color="#33E364"/>
<stop offset="0.12" stop-color="#2ED85F"/>
<stop offset="0.34" stop-color="#22B951"/>
<stop offset="0.62" stop-color="#0E883B"/>
<stop offset="0.8" stop-color="#00652B"/>
</radialGradient>
<radialGradient id="paint29_radial_4685_67615" cx="0" cy="0" r="1" gradientUnits="userSpaceOnUse" gradientTransform="translate(47.7885 2.19564) rotate(-0.561705) scale(61.4221 44.5628)">
<stop stop-color="#35E565"/>
<stop offset="0.12" stop-color="#30DA60"/>
<stop offset="0.33" stop-color="#24BB52"/>
<stop offset="0.6" stop-color="#108A3C"/>
<stop offset="0.8" stop-color="#00622A"/>
</radialGradient>
<radialGradient id="paint30_radial_4685_67615" cx="0" cy="0" r="1" gradientUnits="userSpaceOnUse" gradientTransform="translate(47.7068 2.28693) rotate(-0.561705) scale(61.2857 44.4637)">
<stop stop-color="#37E666"/>
<stop offset="0.11" stop-color="#32DB61"/>
<stop offset="0.32" stop-color="#26BC53"/>
<stop offset="0.59" stop-color="#128B3C"/>
<stop offset="0.8" stop-color="#005F28"/>
</radialGradient>
<radialGradient id="paint31_radial_4685_67615" cx="0" cy="0" r="1" gradientUnits="userSpaceOnUse" gradientTransform="translate(47.6172 2.38662) rotate(-0.561705) scale(61.1447 44.3615)">
<stop stop-color="#38E866"/>
<stop offset="0.11" stop-color="#33DD61"/>
<stop offset="0.31" stop-color="#27BE53"/>
<stop offset="0.57" stop-color="#148D3D"/>
<stop offset="0.8" stop-color="#005C27"/>
</radialGradient>
<radialGradient id="paint32_radial_4685_67615" cx="0" cy="0" r="1" gradientUnits="userSpaceOnUse" gradientTransform="translate(47.5208 2.4909) rotate(-0.561706) scale(61.0082 44.2625)">
<stop stop-color="#3AE967"/>
<stop offset="0.11" stop-color="#35DE62"/>
<stop offset="0.3" stop-color="#29BF54"/>
<stop offset="0.56" stop-color="#158E3E"/>
<stop offset="0.8" stop-color="#005926"/>
</radialGradient>
<radialGradient id="paint33_radial_4685_67615" cx="0" cy="0" r="1" gradientUnits="userSpaceOnUse" gradientTransform="translate(47.4251 2.59971) rotate(-0.561705) scale(60.8718 44.1635)">
<stop stop-color="#3CEB68"/>
<stop offset="0.11" stop-color="#37E063"/>
<stop offset="0.29" stop-color="#2BC155"/>
<stop offset="0.54" stop-color="#17903F"/>
<stop offset="0.8" stop-color="#005625"/>
</radialGradient>
<radialGradient id="paint34_radial_4685_67615" cx="0" cy="0" r="1" gradientUnits="userSpaceOnUse" gradientTransform="translate(47.316 2.71753) rotate(-0.561705) scale(60.7308 44.0612)">
<stop stop-color="#3EEC69"/>
<stop offset="0.1" stop-color="#39E164"/>
<stop offset="0.29" stop-color="#2DC256"/>
<stop offset="0.53" stop-color="#19913F"/>
<stop offset="0.8" stop-color="#005323"/>
</radialGradient>
<radialGradient id="paint35_radial_4685_67615" cx="0" cy="0" r="1" gradientUnits="userSpaceOnUse" gradientTransform="translate(47.2062 2.02315) scale(60.5915 43.9585)">
<stop stop-color="#3FEE69"/>
<stop offset="0.1" stop-color="#3AE364"/>
<stop offset="0.28" stop-color="#2EC456"/>
<stop offset="0.52" stop-color="#1A9340"/>
<stop offset="0.8" stop-color="#005122"/>
</radialGradient>
<radialGradient id="paint36_radial_4685_67615" cx="0" cy="0" r="1" gradientUnits="userSpaceOnUse" gradientTransform="translate(48.6374 2.12097) scale(61.0432 43.8563)">
<stop stop-color="#41EF6A"/>
<stop offset="0.1" stop-color="#3CE465"/>
<stop offset="0.28" stop-color="#30C557"/>
<stop offset="0.51" stop-color="#1C9441"/>
<stop offset="0.79" stop-color="#015022"/>
<stop offset="0.8" stop-color="#004E21"/>
</radialGradient>
<radialGradient id="paint37_radial_4685_67615" cx="0" cy="0" r="1" gradientUnits="userSpaceOnUse" gradientTransform="translate(48.5486 2.22578) scale(60.91 43.7606)">
<stop stop-color="#43F16B"/>
<stop offset="0.1" stop-color="#3EE666"/>
<stop offset="0.27" stop-color="#32C758"/>
<stop offset="0.5" stop-color="#1E9642"/>
<stop offset="0.77" stop-color="#035223"/>
<stop offset="0.8" stop-color="#004B20"/>
</radialGradient>
<radialGradient id="paint38_radial_4685_67615" cx="0" cy="0" r="1" gradientUnits="userSpaceOnUse" gradientTransform="translate(48.4654 2.33792) scale(60.7722 43.6616)">
<stop stop-color="#45F26C"/>
<stop offset="0.1" stop-color="#40E767"/>
<stop offset="0.27" stop-color="#34C859"/>
<stop offset="0.49" stop-color="#209742"/>
<stop offset="0.76" stop-color="#055323"/>
<stop offset="0.8" stop-color="#00481E"/>
</radialGradient>
<radialGradient id="paint39_radial_4685_67615" cx="0" cy="0" r="1" gradientUnits="userSpaceOnUse" gradientTransform="translate(48.3766 2.45808) scale(60.6299 43.5593)">
<stop stop-color="#46F46C"/>
<stop offset="0.09" stop-color="#41E967"/>
<stop offset="0.26" stop-color="#35CA59"/>
<stop offset="0.48" stop-color="#229943"/>
<stop offset="0.74" stop-color="#065524"/>
<stop offset="0.8" stop-color="#00451D"/>
</radialGradient>
<radialGradient id="paint40_radial_4685_67615" cx="0" cy="0" r="1" gradientUnits="userSpaceOnUse" gradientTransform="translate(48.2928 2.58389) scale(60.4875 43.4571)">
<stop stop-color="#48F56D"/>
<stop offset="0.09" stop-color="#43EA68"/>
<stop offset="0.25" stop-color="#37CB5A"/>
<stop offset="0.47" stop-color="#239A44"/>
<stop offset="0.73" stop-color="#085625"/>
<stop offset="0.8" stop-color="#00421C"/>
</radialGradient>
<linearGradient id="paint41_linear_4685_67615" x1="49.2772" y1="33.8306" x2="44.0609" y2="-3.57521" gradientUnits="userSpaceOnUse">
<stop offset="0.1" stop-color="#FF8475"/>
<stop offset="0.37" stop-color="#E84E43"/>
<stop offset="0.6" stop-color="#D6261F"/>
<stop offset="0.79" stop-color="#CC0E08"/>
<stop offset="0.9" stop-color="#C80500"/>
</linearGradient>
<clipPath id="clip0_4685_67615">
<rect width="28" height="28" rx="14" fill="white"/>
</clipPath>
<clipPath id="clip1_4685_67615">
<rect width="28" height="28" fill="white" transform="translate(30)"/>
</clipPath>
</defs>
</svg>
